<svg viewBox="0 0 993 400" xmlns="http://www.w3.org/2000/svg"><g><g><g><g><g><line x1="70.69600677490234" y1="379" x2="65.69600677490234" y2="379" style="visibility: inherit;" fill="rgb(0, 0, 0)" stroke="rgb(204, 204, 204)" stroke-width="1px"></line><line x1="70.69600677490234" y1="341.0999999999999" x2="65.69600677490234" y2="341.0999999999999" style="visibility: inherit;" fill="rgb(0, 0, 0)" stroke="rgb(204, 204, 204)" stroke-width="1px"></line><line x1="70.69600677490234" y1="303.20000000000016" x2="65.69600677490234" y2="303.20000000000016" style="visibility: inherit;" fill="rgb(0, 0, 0)" stroke="rgb(204, 204, 204)" stroke-width="1px"></line><line x1="70.69600677490234" y1="265.3" x2="65.69600677490234" y2="265.3" style="visibility: inherit;" fill="rgb(0, 0, 0)" stroke="rgb(204, 204, 204)" stroke-width="1px"></line><line x1="70.69600677490234" y1="227.39999999999995" x2="65.69600677490234" y2="227.39999999999995" style="visibility: inherit;" fill="rgb(0, 0, 0)" stroke="rgb(204, 204, 204)" stroke-width="1px"></line><line x1="70.69600677490234" y1="189.50000000000017" x2="65.69600677490234" y2="189.50000000000017" style="visibility: inherit;" fill="rgb(0, 0, 0)" stroke="rgb(204, 204, 204)" stroke-width="1px"></line><line x1="70.69600677490234" y1="151.60000000000005" x2="65.69600677490234" y2="151.60000000000005" style="visibility: inherit;" fill="rgb(0, 0, 0)" stroke="rgb(204, 204, 204)" stroke-width="1px"></line><line x1="70.69600677490234" y1="113.69999999999997" x2="65.69600677490234" y2="113.69999999999997" style="visibility: inherit;" fill="rgb(0, 0, 0)" stroke="rgb(204, 204, 204)" stroke-width="1px"></line><line x1="70.69600677490234" y1="75.8000000000002" x2="65.69600677490234" y2="75.8000000000002" style="visibility: inherit;" fill="rgb(0, 0, 0)" stroke="rgb(204, 204, 204)" stroke-width="1px"></line><line x1="70.69600677490234" y1="37.89999999999978" x2="65.69600677490234" y2="37.89999999999978" style="visibility: inherit;" fill="rgb(0, 0, 0)" stroke="rgb(204, 204, 204)" stroke-width="1px"></line><line x1="70.69600677490234" y1="0" x2="65.69600677490234" y2="0" style="visibility: inherit;" fill="rgb(0, 0, 0)" stroke="rgb(204, 204, 204)" stroke-width="1px"></line></g><g transform="translate(60.696006774902344, 0)"><text style="text-anchor: end; visibility: hidden; font-family: Roboto, sans-serif; font-size: 12px; font-weight: 200;" x="0" y="379" dx="0em" dy="0.3em" fill="rgb(33, 33, 33)" stroke="none" stroke-width="1px">0.014</text><text style="text-anchor: end; visibility: inherit; font-family: Roboto, sans-serif; font-size: 12px; font-weight: 200;" x="0" y="341.0999999999999" dx="0em" dy="0.3em" fill="rgb(33, 33, 33)" stroke="none" stroke-width="1px">0.0142</text><text style="text-anchor: end; visibility: inherit; font-family: Roboto, sans-serif; font-size: 12px; font-weight: 200;" x="0" y="303.20000000000016" dx="0em" dy="0.3em" fill="rgb(33, 33, 33)" stroke="none" stroke-width="1px">0.0144</text><text style="text-anchor: end; visibility: inherit; font-family: Roboto, sans-serif; font-size: 12px; font-weight: 200;" x="0" y="265.3" dx="0em" dy="0.3em" fill="rgb(33, 33, 33)" stroke="none" stroke-width="1px">0.0146</text><text style="text-anchor: end; visibility: inherit; font-family: Roboto, sans-serif; font-size: 12px; font-weight: 200;" x="0" y="227.39999999999995" dx="0em" dy="0.3em" fill="rgb(33, 33, 33)" stroke="none" stroke-width="1px">0.0148</text><text style="text-anchor: end; visibility: inherit; font-family: Roboto, sans-serif; font-size: 12px; font-weight: 200;" x="0" y="189.50000000000017" dx="0em" dy="0.3em" fill="rgb(33, 33, 33)" stroke="none" stroke-width="1px">0.015</text><text style="text-anchor: end; visibility: inherit; font-family: Roboto, sans-serif; font-size: 12px; font-weight: 200;" x="0" y="151.60000000000005" dx="0em" dy="0.3em" fill="rgb(33, 33, 33)" stroke="none" stroke-width="1px">0.0152</text><text style="text-anchor: end; visibility: inherit; font-family: Roboto, sans-serif; font-size: 12px; font-weight: 200;" x="0" y="113.69999999999997" dx="0em" dy="0.3em" fill="rgb(33, 33, 33)" stroke="none" stroke-width="1px">0.0154</text><text style="text-anchor: end; visibility: inherit; font-family: Roboto, sans-serif; font-size: 12px; font-weight: 200;" x="0" y="75.8000000000002" dx="0em" dy="0.3em" fill="rgb(33, 33, 33)" stroke="none" stroke-width="1px">0.0156</text><text style="text-anchor: end; visibility: inherit; font-family: Roboto, sans-serif; font-size: 12px; font-weight: 200;" x="0" y="37.89999999999978" dx="0em" dy="0.3em" fill="rgb(33, 33, 33)" stroke="none" stroke-width="1px">0.0158</text><text style="text-anchor: end; visibility: hidden; font-family: Roboto, sans-serif; font-size: 12px; font-weight: 200;" x="0" y="0" dx="0em" dy="0.3em" fill="rgb(33, 33, 33)" stroke="none" stroke-width="1px">0.016</text></g><line x1="70.69600677490234" y1="0" x2="70.69600677490234" y2="379" fill="rgb(0, 0, 0)" stroke="rgb(204, 204, 204)" stroke-width="1px"></line></g></g><g transform="translate(70, 0)" clip-path="url(#clip_0)"><clipPath id="clip_0"><rect width="922" height="379"></rect></clipPath><g><g><g><line x1="0" y1="0" x2="0" y2="379" fill="rgb(0, 0, 0)" stroke="rgb(66, 66, 66)" stroke-width="1px" opacity="0.25"></line><line x1="102.47822146945529" y1="0" x2="102.47822146945529" y2="379" fill="rgb(0, 0, 0)" stroke="rgb(66, 66, 66)" stroke-width="1px" opacity="0.25"></line><line x1="204.95644293891058" y1="0" x2="204.95644293891058" y2="379" fill="rgb(0, 0, 0)" stroke="rgb(66, 66, 66)" stroke-width="1px" opacity="0.25"></line><line x1="307.43466440836585" y1="0" x2="307.43466440836585" y2="379" fill="rgb(0, 0, 0)" stroke="rgb(66, 66, 66)" stroke-width="1px" opacity="0.25"></line><line x1="409.91288587782117" y1="0" x2="409.91288587782117" y2="379" fill="rgb(0, 0, 0)" stroke="rgb(66, 66, 66)" stroke-width="1px" opacity="0.25"></line><line x1="512.3911073472765" y1="0" x2="512.3911073472765" y2="379" fill="rgb(0, 0, 0)" stroke="rgb(66, 66, 66)" stroke-width="1px" opacity="0.25"></line><line x1="614.8693288167317" y1="0" x2="614.8693288167317" y2="379" fill="rgb(0, 0, 0)" stroke="rgb(66, 66, 66)" stroke-width="1px" opacity="0.25"></line><line x1="717.3475502861871" y1="0" x2="717.3475502861871" y2="379" fill="rgb(0, 0, 0)" stroke="rgb(66, 66, 66)" stroke-width="1px" opacity="0.25"></line><line x1="819.8257717556423" y1="0" x2="819.8257717556423" y2="379" fill="rgb(0, 0, 0)" stroke="rgb(66, 66, 66)" stroke-width="1px" opacity="0.25"></line><line x1="922.3039932250977" y1="0" x2="922.3039932250977" y2="379" fill="rgb(0, 0, 0)" stroke="rgb(66, 66, 66)" stroke-width="1px" opacity="0.25"></line></g><g><line x1="0" y1="379" x2="922.3039932250977" y2="379" fill="rgb(0, 0, 0)" stroke="rgb(66, 66, 66)" stroke-width="1px" opacity="0.25"></line><line x1="0" y1="341.0999999999999" x2="922.3039932250977" y2="341.0999999999999" fill="rgb(0, 0, 0)" stroke="rgb(66, 66, 66)" stroke-width="1px" opacity="0.25"></line><line x1="0" y1="303.20000000000016" x2="922.3039932250977" y2="303.20000000000016" fill="rgb(0, 0, 0)" stroke="rgb(66, 66, 66)" stroke-width="1px" opacity="0.25"></line><line x1="0" y1="265.3" x2="922.3039932250977" y2="265.3" fill="rgb(0, 0, 0)" stroke="rgb(66, 66, 66)" stroke-width="1px" opacity="0.25"></line><line x1="0" y1="227.39999999999995" x2="922.3039932250977" y2="227.39999999999995" fill="rgb(0, 0, 0)" stroke="rgb(66, 66, 66)" stroke-width="1px" opacity="0.25"></line><line x1="0" y1="189.50000000000017" x2="922.3039932250977" y2="189.50000000000017" fill="rgb(0, 0, 0)" stroke="rgb(66, 66, 66)" stroke-width="1px" opacity="0.25"></line><line x1="0" y1="151.60000000000005" x2="922.3039932250977" y2="151.60000000000005" fill="rgb(0, 0, 0)" stroke="rgb(66, 66, 66)" stroke-width="1px" opacity="0.25"></line><line x1="0" y1="113.69999999999997" x2="922.3039932250977" y2="113.69999999999997" fill="rgb(0, 0, 0)" stroke="rgb(66, 66, 66)" stroke-width="1px" opacity="0.25"></line><line x1="0" y1="75.8000000000002" x2="922.3039932250977" y2="75.8000000000002" fill="rgb(0, 0, 0)" stroke="rgb(66, 66, 66)" stroke-width="1px" opacity="0.25"></line><line x1="0" y1="37.89999999999978" x2="922.3039932250977" y2="37.89999999999978" fill="rgb(0, 0, 0)" stroke="rgb(66, 66, 66)" stroke-width="1px" opacity="0.25"></line><line x1="0" y1="0" x2="922.3039932250977" y2="0" fill="rgb(0, 0, 0)" stroke="rgb(66, 66, 66)" stroke-width="1px" opacity="0.25"></line></g></g></g><g><g><line x1="0" y1="3032" x2="922.3039932250977" y2="3032" fill="rgb(0, 0, 0)" stroke="rgb(153, 153, 153)" stroke-width="1.5px"></line></g></g><g><g><line x1="-102.47822146945529" y1="0" x2="-102.47822146945529" y2="379" fill="rgb(0, 0, 0)" stroke="rgb(153, 153, 153)" stroke-width="1.5px"></line></g></g><g><g><g><g><g><path style="fill: none;" stroke="rgb(255, 112, 67)" stroke-width="2px" d="M472.83451386006675,-32.83645497932932L475.08903473239474,13.056730945002288L481.6476409064399,-4.684752677746908L499.3763732206556,-10.635291758410208L502.0408069788615,42.16798108904189L510.4440211393568,69.41306227880803L514.543149998135,0.06593894896896035L518.0274095280965,127.73696685261909L519.6670610716078,87.88894833352882L526.9430147959391,76.08878572012813L530.8371872117784,-3.3141030048669737L532.1694040908814,43.169287010157106L542.1097915734184,-5.200408583159149L548.8733541904026,55.1444683867147L554.3046999282836,102.81463602150556L560.2484367735121,125.71428860108196L562.8103923102485,177.58567446947015L566.4996082831489,173.8088133206078L567.1144776119656,214.87907341424446L567.6268687193129,214.59647500627239L567.8318251622518,241.4727131635824L570.9061718063355,102.08690422345593L579.3093859668307,-41.457627945392346L579.821777074178,70.84884952299629L580.4366464029947,97.96823830043357L585.7655139194064,137.28543528245552L586.2779050267538,134.59908953952177L598.4728133816188,29.238439842007697L600.4198995895385,134.57458008386516L608.413200864156,154.9730631322588L614.5618941523234,157.4875124174308L626.1419331783718,130.35912980553752L627.2691936145359,129.69055979893986L629.9336273727417,197.57700182752194L630.446018480089,122.93541162991863L631.1633660303752,223.24861067950707L635.8773642179701,177.8127055652595L637.1071028756036,156.09005804001887L638.541797976176,198.15443542393245L638.9517108620538,243.86941856124648L639.7715366338094,239.93394740801926L641.5136663987902,235.8003960408346L641.8211010631985,169.98232654644346L642.845883277893,238.0074470859559L643.9731437140571,242.42645312380267L644.0756219355266,244.19034582097456L645.30536059316,233.084515428352L646.7400556937323,246.82212042857185L647.7648379084269,288.8610458213126L648.3797072372436,252.88419749665L648.7896201231215,205.73463946179783L650.5317498881022,223.48125127015376L652.068923210144,175.10755338554165L653.2986618677776,102.88974792530782L660.6770938135784,209.6848697514581L661.5993978068034,241.43281137056638L666.00596132999,238.05307680730525L669.387742638482,238.98715906509435L669.4902208599515,205.57941961985088L670.1050901887681,205.25591536135207L671.8472199537489,262.71592594248517L672.2571328396268,249.31505234576713L674.2042190475464,206.05075003676058L674.8190883763631,224.17764314992678L677.1760874701606,136.14685630490436L678.8157390136719,193.25118683242857L679.0206954566108,116.76644166090519L679.2256518995497,170.4778000505472L679.9429994498358,265.3386584798517L680.0454776713053,299.66430722505L682.6074332080418,239.66393418955866L683.5297372012668,201.34419505803618L684.6569976374308,217.15730549698375L685.2718669662476,210.37750311824854L688.2437353888618,243.34816625644655L688.756126496209,174.02530022817754L688.9610829391479,147.52724349563067L689.4734740464952,234.11064861306411L691.1131255900065,263.17071752899193L691.3180820329454,228.41600543351942L691.9329513617622,276.56609372253433L692.8552553549872,266.758637228341L693.1626900193955,321.45066668315576L693.3676464623345,287.76214648916607L693.470124683804,277.7699524321217L695.3147326702542,229.9034913753306L697.1593406567044,294.71351453213896L697.6717317640516,245.09932784169317L697.8766882069906,222.38233438688175L698.2866010928683,203.88840619211012L702.2832517301772,219.77627821406492L702.488208173116,232.68623040253388L704.5377726025051,295.826522278097L704.742729045444,319.40357230443175L705.1526419313219,281.26028751783616L706.4848588104248,339.57838959069903L707.0997281392416,245.12593765301648L707.7145974680583,204.35151531394195L709.8666401189168,211.48230733481572L711.3013352194893,201.7272807658168L711.6087698838976,231.86074326488108L711.8137263268364,79.6799821588562L711.9162045483059,153.26487140257146L712.5310738771227,137.45410693078657L712.7360303200616,238.66021059685573L713.760812534756,216.50276282121897L716.0153334070841,176.63908881956422L717.3475502861871,226.33988745369965L718.7822453867594,200.15166430388942L720.0119840443929,186.02350075820135L720.934288037618,161.22535295205745L722.8813742455377,186.77275635252866L723.0863306884766,225.9787861210136L723.188808909946,169.83905056876125L723.2912871314155,148.72917487628584L723.4962435743545,114.92909552101693L724.521025789049,243.91543859657307L724.6235040105183,256.471366352836L725.2383733393351,222.9813329634067L725.6482862252129,275.70521240276094L725.8532426681519,274.8322286998748L726.3656337754992,295.878017759056L727.3904159901937,298.93107528730104L727.5953724331325,219.77280803468184L727.6978506546021,208.57098755059477L727.902807097541,229.24173540513425L728.9275893122356,201.11214184546893L729.1325457551744,262.40227050652754L729.7474150839912,237.6399037246148L730.4647626342773,281.79814811374206L730.7721972986857,216.1339235310283L730.9771537416246,253.0694467159825L732.9242399495442,187.46149291889165L733.7440657212999,294.9940388548155L734.3589350501167,339.473623369502L734.5638914930555,233.94695416204172L734.7688479359945,212.48635474212176L735.1787608218723,230.0413413129282L735.7936301506891,172.41805456322635L736.8184123653836,232.90079476828694L737.5357599156697,271.4875758239349L737.7407163586087,255.9496885745953L738.5605421303643,196.5542420973916L739.2778896806506,172.2474927100859L739.3803679021199,256.36055967618955L739.5853243450589,269.23646695560194L740.4051501168145,204.10577917186015L741.429932331509,215.2008892198659L741.634888774448,212.35159219951953L742.0448016603258,269.060874646315L743.4794967608982,297.95254779333425L744.094366089715,229.53283211871724L744.1968443111843,255.40315270742647L744.4018007541233,59.303052325969055L744.9141918614705,165.8761006697568L745.221626525879,189.15382892069556L745.4265829688178,239.3609424273808L745.8364958546956,213.7813341775916L745.9389740761651,149.39040165897507L747.3736691767375,159.91174873564418L749.0133207202488,177.66597904922818L749.2182771631877,156.00915215112124L749.525711827596,177.23674876807547L749.6281900490656,238.32147390436188L750.857928706699,281.66612647498266L751.3703198140462,185.5888437361992L751.8827109213935,216.14864962139583L752.6000584716796,160.9678917815618L752.7025366931491,192.456918380578L753.6248406863742,113.00654196853618L755.0595357869466,166.16029631862148L755.4694486728245,268.25302535157846L755.5719268942938,213.86589034266146L755.8793615587023,219.9115641973429L755.9818397801718,240.07510708940117L756.0843180016412,268.91896573556727L756.1867962231106,269.855250616987L756.5967091089884,283.30604932762367L756.9041437733968,309.6961602944565L757.1091002163357,234.14300379475515L757.5190131022135,199.30155680519687L759.3636210886638,313.4837297957679L761.4131855180528,294.6297534204449L761.5156637395223,267.4912659941272L761.9255766254001,294.9511953245494L762.1305330683391,284.5694994763071L762.335489511278,275.6992686546166L762.5404459542168,167.77565731443875L762.6429241756863,181.51375589125118L763.0528370615641,280.5750602355766L763.1553152830336,298.35939920968815L763.4627499474419,297.55963688359844L763.8726628333197,249.2128533319603L764.1800974977282,198.21728595322182L764.385053940667,171.5422327144494L764.4875321621365,199.99011834702185L765.6147925983005,128.51135099375995L767.1519659203423,166.03306047585446L767.2544441418119,196.7984129367283L767.3569223632812,172.46042440402576L768.1767481350369,176.80562245439333L768.7916174638536,254.78431719893732L769.099052128262,252.18464306804265L769.3040085712009,168.7566855240627L770.1238343429565,250.70085389845173L770.226312564426,244.42037104924094L770.6362254503039,280.20886403238507L770.8411818932427,309.61195324311103L771.2510947791205,273.29487911581646L771.4560512220595,281.46314056795615L771.6610076649984,300.73842826534394L771.7634858864678,289.1419094565458L772.2758769938151,229.155926313278L772.6857898796928,257.60072164909667L773.4031374299792,301.15611495778904L774.0180067587959,287.6861878273247L774.2229632017347,269.9499735437249L774.4279196446737,217.88219710453833L774.5303978661431,269.1977664724858L775.0427889734905,300.62880983626076L775.3502236378988,277.8755839164569L775.6576583023071,284.3027712208341L775.7601365237766,272.4741705046482L776.9898751814101,194.72621292390744L777.6047445102269,306.2022780762215L777.7072227316962,303.96986239767693L777.8097009531657,243.14776756087932L778.0146573961046,306.45233282130954L778.117135617574,240.49506153423812L778.7320049463908,153.99662942444834L778.8344831678602,189.1064671874379L779.2443960537381,218.2706599608261L779.3468742752075,211.6086461380245L779.8592653825548,309.88612990290653L780.1667000469632,304.5835433152958L780.6790911543104,243.65617629424608L780.8840475972494,290.79644144049803L781.2939604831272,159.4674928246229L782.2162644763523,203.72289225061496L782.3187426978217,242.39483521938166L782.5236991407606,187.29478702431854L782.62617736223,212.36072321823804L783.1385684695774,261.35915529335506L784.0608724628025,283.2620933851897L784.6757417916192,277.2773322091281L785.290611120436,336.535054828273L785.3930893419054,227.66133352550688L785.9054804492527,290.2412474672964L786.212915113661,329.6512603951082L786.6228279995389,266.60498633936544L786.8277844424778,203.5053977173896L787.0327408854167,231.76549087329673L787.2376973283556,288.8596025235296L788.0575231001112,265.7389682189728L788.467435985989,325.807712239391L788.7748706503974,292.89263531110663L788.8773488718668,196.92297618116152L789.2872617577447,254.19167385116356L789.4922182006836,251.8015253014275L789.9021310865614,313.7209055806342L790.0046093080308,284.95945798070096L790.2095657509698,173.60920631713205L790.6194786368476,274.7454614003093L791.849217294481,198.23985310552092L791.9516955159505,247.46633602772695L792.05417373742,310.2770378461155L792.1566519588895,307.2050209013028L792.2591301803589,272.7745866756083L792.3616084018283,276.5713748428491L792.6690430662367,279.8943132545514L792.976477730645,306.3662799186086L793.0789559521146,230.90565230170344L793.7963035024007,227.20611292105605L794.2062163882786,249.97414221454673L794.4111728312174,239.8912893568816L794.7186074956259,212.0140469676462L795.0260421600342,98.91207688487832L795.1285203815037,155.74575630687048L795.640911488851,199.63512757934558L796.0508243747288,256.52533076713905L796.3582590391371,239.2232811853911L796.4607372606065,200.95322776321342L796.5632154820761,237.10886886110194L796.7681719250149,318.9942299851197L797.3830412538316,263.8731272490872L797.4855194753011,185.07932230961646L797.69047591824,216.2280989997525L798.4078234685262,186.64438072520105L798.6127799114652,231.02273831771382L799.2276492402818,186.5389635816608L800.149953233507,226.38293332340692L800.6623443408541,286.75978779484245L800.7648225623237,299.9326418202483L801.5846483340792,189.68346201845205L801.8920829984877,223.64288516472706L802.3019958843655,252.67671217400385L802.5069523273044,243.73365587966765L802.6094305487738,199.97457385794578L802.7119087702433,284.2282125352995L803.0193434346518,223.763523402761L803.531734541999,272.3738733726446L804.0441256493463,217.05246000574266L804.4540385352241,248.17902253321557L804.658994978163,232.55780203939517L804.8639514211019,270.9382685604754L804.9664296425714,159.54203433591508L805.1713860855102,229.6501522126699L805.6837771928575,322.6227964632455L805.8887336357965,323.87790094153553L806.8110376290215,261.6240413983848L807.1184722934298,278.3025888681525L807.2209505148994,267.19412969828323L808.3482109510634,238.4208407791299L808.4506891725327,299.3272230232861L808.6556456154717,307.33883269161595L809.4754713872275,226.79628993142046L809.6804278301663,244.6053648028875L809.7829060516358,155.77734120691449L809.8853842731052,279.2404841989553L810.1928189375136,326.2542989573045L810.8076882663303,384.6709973899225L811.1151229307387,353.95392959342587L811.422557595147,333.08959913567406L811.8324704810249,301.1078128460983L812.0374269239638,298.15633656346427L812.1399051454332,258.3115003467419L812.3448615883722,219.43501706485856L812.549818031311,222.37527131178942L812.6522962527805,184.92855299794076L812.75477447425,260.4076452838382L812.9597309171888,326.99056245905183L813.0622091386583,263.53526555610904L814.0869913533529,287.8504628158401L814.3944260177612,301.68570516358585L814.8043389036391,323.7302805757568L815.009295346578,338.7833696947125L815.2142517895169,314.05952306214755L815.4192082324557,375.2318568803298L815.5216864539252,310.4837646754046L815.6241646753947,291.9508053270851L816.0340775612725,300.3918495823668L816.3415122256808,304.420787876828L816.7514251115587,237.11298552363127L816.9563815544976,216.37983758872144L817.1613379974365,237.2062189884507L817.7762073262533,289.13027838960414L817.8786855477227,296.6231447106307L817.9811637691921,318.7434252468171L818.1861202121311,368.6747646282567L818.3910766550699,325.3221443742786L818.4935548765395,317.5815645232961L818.8009895409479,296.97599761487027L818.9034677624172,304.20065612078287L819.2109024268257,242.91103534984939L819.518337091234,301.1085560982726L819.6208153127035,288.5153726631585L819.8257717556423,351.1506205838433L820.0307281985812,306.76407837668125L820.5431193059286,292.4513440388388L820.7480757488674,230.07243712889812L820.8505539703369,270.76483250050353L820.9530321918063,249.65919053339132L821.3629450776842,229.5006725194047L821.5679015206231,259.22446658772185L821.9778144065009,336.70855564511976L822.0802926279704,363.7505752631256L822.1827708494399,302.1776043303746L822.4902055138482,382.1928946064673L822.7976401782565,375.176250200675L823.8224223929511,335.8155504561699L823.9249006144206,269.34051360173453L824.0273788358901,305.45909773399484L824.2323352788289,354.9524309133892L824.5397699432373,327.17108568968774L824.6422481647068,277.7752778793715L824.8472046076456,271.96208226176157L824.9496828291152,354.0360915541174L825.0521610505846,360.2369937780214L825.154639272054,350.5194252450892L825.6670303794014,337.3398107972519L825.9744650438097,344.1022334612474L826.5893343726265,293.20672175538925L827.2042037014431,294.29352142216214L827.3066819229126,331.36016320169836L827.409160144382,310.48710958052214L827.5116383658516,319.5570705168757L827.614116587321,326.8069658507891L827.8190730302599,276.80561254948276L827.9215512517293,222.80303755271368L828.1265076946682,178.58782700072487L828.4339423590766,144.2430699355648L828.7413770234849,250.73445844872265L828.8438552449544,316.66762996449137L828.9463334664239,348.1475266694073L829.0488116878932,350.87594644302385L829.9711156811184,315.14061352803844L830.1760721240573,331.8399346050296L830.4835067884658,320.9521220461532L830.5859850099351,283.8766905597452L830.6884632314046,262.36751792470255L830.7909414528741,301.78096694880503L831.2008543387519,269.19923283835516L831.3033325602213,303.74247256624864L831.4058107816909,340.28209341590485L831.6107672246296,319.1988598020367L831.9182018890381,278.551804379314L832.123158331977,278.17754694711556L832.6355494393243,310.9843249806248L832.8405058822632,235.37412989070944L833.0454623252022,218.1889555211718L833.1479405466715,203.02654336576782L833.5578534325493,229.56401514223302L833.7628098754883,266.7352266175217L833.8652880969577,339.7941611699859L834.0702445398966,270.1799716676832L834.1727227613661,200.41497806015963L834.6851138687134,228.41739413025007L834.7875920901828,199.8791918076993L834.8900703116524,276.32655011671307L834.9925485331217,251.55390995775167L835.8123743048774,284.48263389488784L835.9148525263469,328.43117683750813L836.0173307478163,180.51898020578886L836.1198089692857,112.26192600174846L836.427243633694,161.7114680462723L836.7346782981025,159.69348116240772L837.5545040698581,290.5698981077783L837.6569822913276,279.7886553997587L837.759460512797,322.22506558268043L838.0668951772053,353.6951178140568L838.4768080630832,376.19510452462L838.5792862845527,404.90872242905334L838.7842427274917,420.91123578314534L838.9891991704304,336.6327671132359L839.3991120563084,386.0756437985226L839.5015902777778,307.7191056047752L839.6040684992472,298.68580753564095L839.8090249421862,352.0796641883804L840.1164596065945,206.5838611112568L840.423894271003,247.6791088006811L840.5263724924723,251.16475911569106L840.9362853783501,261.56826940704315L841.0387635998196,288.5793454604085L841.4486764856974,316.44957326839796L841.5511547071668,251.7611488237403L841.9610675930447,224.26244657244823L842.0635458145142,230.71454578045947L842.7808933648004,240.8215366983648L842.8833715862697,224.09677746797993L843.1908062506782,221.1135110834562L843.4982409150865,266.5403043555809L843.600719136556,294.89807420239396L844.0106320224338,285.7121739537452L844.4205449083116,186.96631214326234L844.5230231297811,215.6893269750813L844.6255013512506,159.51224469145203L845.0354142371284,241.40521109700236L845.2403706800673,265.47784335821905L845.3428489015367,306.05809707438993L845.5478053444757,299.1801530018213L846.1626746732924,294.065914173112L846.2651528947619,270.4075692067658L846.6750657806397,274.03330439449053L846.8800222235786,299.42564163876L846.982500445048,188.03387667103058L847.8023262168037,205.95074591555297L848.0072826597425,280.33473723690565L848.1097608812121,287.8287438321761L848.2122391026815,281.313221145788L848.3147173241509,307.89427055067944L848.4171955456204,264.23452640263514L848.5196737670899,253.5592495959301L848.8271084314982,164.09302879043221L848.9295866529676,154.9964602763521L849.3394995388454,247.4115890726491L849.441977760315,323.3118209102778L849.5444559817844,369.6238375549931L849.7494124247233,377.3299480465303L850.2618035320705,356.6011009238511L850.3642817535401,324.9770517228454L850.4667599750095,276.7342456730253L850.569238196479,276.70650870961254L850.6717164179485,307.1075174695989L850.7741946394178,301.25275173257216L850.9791510823568,320.5860980091717L851.0816293038263,283.56403291453296L851.1841075252956,325.235061441239L851.2865857467651,265.0173574756837L851.5940204111735,303.4572780428088L851.6964986326429,343.2714107318376L852.1064115185208,336.73143848679393L852.3113679614597,323.9850797900674L852.4138461829291,369.47242790902345L852.618802625868,371.40081649985717L853.1311937332154,321.1687645254538L853.8485412835015,376.81249060410283L854.0534977264405,352.52844703154585L854.1559759479098,241.519990920763L854.5658888337878,207.15608829393446L854.7708452767266,249.3837846495776L854.9758017196656,344.78597327191017L855.078279941135,331.33561522286163L855.3857146055433,280.6242842735116L855.4881928270128,281.2394016049064L855.7956274914211,296.5587107307766L856.1030621558294,276.2216386730702L856.4104968202379,373.3714435523886L856.7179314846462,371.5994552195748L857.0253661490545,319.79720895562645L857.4352790349325,341.51478411599464L857.537757256402,311.1773746823936L857.8451919208103,307.6604393074315L857.9476701422797,272.65286288406855L858.0501483637491,279.23683275876294L858.1526265852186,290.180140014576L858.2551048066881,321.2450121006888L858.5625394710964,224.84523793080578L858.6650176925659,185.1885464818426L858.9724523569743,221.7747123513308L859.0749305784437,165.0452362760117L859.2798870213826,194.51646858091416L859.3823652428522,244.44433228156112L859.587321685791,318.632231534905L859.7922781287299,362.71632279389274L860.0997127931383,378.31382915933847L860.2021910146077,394.87824116533943L861.2269732293023,426.74348811282005L861.5344078937106,376.89795748426496L861.7393643366496,341.41214019229403L861.841842558119,388.09698376310115L862.1492772225274,280.6381572857632L862.4567118869358,281.7798648774701L862.5591901084052,315.871289181714L862.8666247728136,358.80822433561366L862.969102994283,326.9923728944676L863.0715812157525,380.43824330966584L863.4814941016302,297.61813983470734L863.5839723230998,198.81852822393498L863.6864505445692,224.11738059604343L863.7889287660387,349.04710349252326L863.9938852089776,302.27263410276487L864.301319873386,275.78982844880994L864.4037980948553,385.2034583788021L864.7112327592638,351.55933960681597L864.8137109807332,403.7016202503769L864.9161892022028,392.92785152312103L865.0186674236721,288.887439802384L865.1211456451415,319.1040285617681L865.3261020880805,308.33551916423863L865.5310585310194,340.38174208070905L865.6335367524889,312.92789774576494L865.7360149739583,382.7809946339707L865.8384931954279,372.00575114198836L865.9409714168972,372.76931517665594L866.1459278598362,288.1819944759907L866.2484060813056,214.48858825747357L866.555840745714,309.40054183533294L866.8632754101224,358.2944629986915L867.2731882960002,276.1101827815077L867.3756665174695,313.1099815648737L867.4781447389391,365.9291289542286L867.5806229604085,348.84768461252264L867.8880576248168,418.6595464605989L868.0930140677558,445.054780183455L868.2979705106947,361.1908579428318L868.4004487321643,227.7521507060125L868.5029269536336,242.68464518580404L868.6054051751031,322.8704233601308L868.7078833965726,354.76095501688803L868.810361618042,322.69566385214176L869.2202745039198,310.3866561950129L869.3227527253893,314.76747781788623L869.4252309468587,328.3033473491986L869.5277091683282,320.39192631097563L869.6301873897976,351.58065367342186L869.8351438327365,376.87101528257796L869.9376220542059,437.5123774302643L871.1673607118395,382.7850189697725L871.3723171547784,324.7211713607302L871.5772735977173,290.4982328826301L871.6797518191868,302.690693935103L871.7822300406561,319.34091899117635L871.8847082621256,302.1602444801975L871.9871864835951,177.88412773634477L872.0896647050646,186.9257001327007L872.192142926534,127.19278510192214L872.2946211480036,249.9716825710485L872.4995775909423,198.84589238326276L872.6020558124119,339.4720279208452L872.8070122553507,175.08133353779525L873.0119686982897,220.37151120597025L873.1144469197591,242.8148146599168L873.6268380271064,310.22073453245366L873.7293162485759,264.02466795490886L873.8317944700453,262.44687910912444L874.0367509129842,214.35009367190622L874.1392291344537,195.68590287073147L874.2417073559232,266.95601615580165L874.3441855773925,169.4116569833295L874.446663798862,188.77224353410838L874.8565766847399,95.05364261840627L875.0615331276788,183.60663196906347L875.1640113491483,244.96667971143054L875.2664895706176,225.74520357208795L875.3689677920871,250.14246211652363L875.5739242350261,354.06023717197405L875.6764024564955,381.56819182200815L875.7788806779649,339.5651551965689L875.9838371209039,371.1156753932724L876.0863153423733,236.51626880677293L876.1887935638428,226.03108405299022L876.2912717853122,313.9227992205444L876.3937500067816,334.54062078646575L876.70118467119,361.5332891851766L877.2135757785373,290.3221239960252L877.4185322214763,231.66138467139345L877.5210104429457,303.37795781312207L877.6234886644152,217.63410439472088L877.7259668858846,263.2820664696735L877.9309233288235,227.63215407150025L878.2383579932318,337.66364132563496L878.4433144361708,335.9155116868031L878.6482708791096,295.894089233399L878.7507491005791,266.96342844308657L878.8532273220486,304.3050580712631L879.0581837649876,277.1849919210361L879.160661986457,248.52507303807047L879.2631402079264,340.8305472576791L879.3656184293959,398.153267651449L879.4680966508654,295.9804855761831L879.5705748723348,349.5684659274164L879.6730530938042,304.06150676111844L879.8780095367431,309.652840414944L879.9804877582127,354.558710895063L880.0829659796821,366.62541247730337L880.4928788655599,384.2407411132745L880.6978353084988,378.0714765917952L880.8003135299682,255.64740064929111L880.9027917514377,282.83000170403847L881.0052699729072,320.1320336146004L881.1077481943767,337.49146011071514L881.210226415846,234.56282180307556L881.415182858785,279.44531461452385L881.5176610802544,328.79455614897574L881.620139301724,234.70384200252872L881.9275739661323,206.87086432628502L882.0300521876018,211.67472197087196L882.1325304090711,228.97061778737068L882.2350086305407,202.6996439494669L882.5424432949491,275.92739611703047L882.7473997378879,212.77108593486474L882.8498779593574,292.47383874924634L882.9523561808269,257.8548885898092L883.0548344022963,308.90455654658666L883.1573126237657,311.58799933283194L883.2597908452352,334.78098659896057L883.3622690667046,348.12948355634927L883.5672255096435,363.35642034596157L883.669703731113,328.663435647106L883.7721819525824,333.07619474036443L883.874660174052,340.56838068188983L883.9771383955214,378.2250593502625L884.0796166169908,402.228410181362L884.1820948384603,349.97201080886055L884.2845730599297,325.0493780599087L884.3870512813992,335.22650469100773L884.4895295028687,272.41175445470975L884.5920077243381,282.1566641438229L884.6944859458075,284.4181985353365L885.001920610216,298.34315489202345L885.1043988316853,352.03439214658516L885.2068770531548,247.2117153440821L885.3093552746243,310.0696960797851L885.4118334960937,301.23661194806965L885.6167899390326,349.4541926760413L885.8217463819716,339.7288822534048L885.9242246034411,340.8647371129611L886.1291810463799,320.4843846020949L886.2316592678494,232.82452147351802L886.3341374893188,231.7879620590634L886.5390939322577,279.0914752005831L886.7440503751967,211.26223125870786L886.9490068181356,168.2424164075598L887.1539632610745,220.45792973392895L887.2564414825439,311.59179294469175L887.3589197040134,192.2556581041942L887.4613979254829,66.11709441195313L887.6663543684217,178.56212917536735L887.8713108113607,228.04575871122037L887.97378903283,319.4240168627629L888.178745475769,196.3029839513617L888.2812236972385,230.0870913769551L888.4861801401775,203.06286667619608L888.5886583616468,167.72900843819662L888.6911365831164,68.69655495703603L888.7936148045858,116.2611174215104L888.8960930260552,158.22455185975008L888.9985712475248,223.68771610453936L889.3060059119331,218.70266620543728L889.4084841334026,234.3101858927436L889.6134405763414,262.63024245999003L889.7159187978109,224.76298966736638L889.8183970192803,216.70040473628683L889.9208752407498,248.76663391762156L890.1258316836887,183.2055919794633L890.3307881266277,266.5734233768816L890.433266348097,326.53824021589975L890.5357445695664,372.54179636044614L890.7407010125054,427.5587839180429L890.8431792339749,288.10079680199647L890.9456574554443,242.3338467065407L891.2530921198528,273.15537267827466L891.4580485627915,208.5410648995843L891.5605267842611,301.2306945302611L891.7654832272,247.19345754107997L891.8679614486695,287.8583318887424L891.970439670139,285.794083726303L892.0729178916083,244.79473475032808L892.3803525560166,294.66987191238275L892.4828307774861,166.83875768839292L892.5853089989556,237.946873105818L892.6877872204251,281.76617014542444L892.7902654418945,333.94388373127697L892.8927436633641,276.01881366778076L893.0977001063029,299.83229210113666L893.2001783277724,352.8314427249741L893.3026565492418,301.0116896339125L893.4051347707112,318.25360371815356L893.6100912136502,318.110917245729L893.7125694351196,378.0495498868128L893.8150476565892,408.23176624431034L894.5323952068753,402.1447638681352L894.6348734283447,263.503517497231L894.8398298712837,250.23220987239444L894.9423080927531,290.70534111779295L895.2497427571615,271.0058246536335L895.3522209786308,315.3184982334543L895.4546992001004,322.89499995082434L895.5571774215698,301.67378752660665L895.6596556430393,366.0025211705676L895.7621338645088,381.25410131120145L895.8646120859783,326.3335658580271L895.9670903074476,335.9802865323547L896.0695685289171,383.5417611159158L896.274524971856,376.16742089732116L896.3770031933254,321.3996560623864L896.5819596362644,330.64507945183635L896.6844378577338,375.7047123941999L896.7869160792034,438.76029108662743L896.8893943006727,307.9010509860474L896.9918725221421,319.9139509401891L897.40178540802,251.23167081786218L897.5042636294895,237.11679990358934L897.6067418509589,302.3129078419077L897.7092200724285,281.1130795610589L897.8116982938978,271.9877712671544L897.9141765153672,292.93128468362005L898.0166547368368,340.69392150352894L898.2216111797757,348.1301657555132L898.3240894012451,288.53475940213383L898.4265676227146,180.4280089735139L898.529045844184,288.30766772920776L898.734002287123,168.62916011330412L898.8364805085923,175.25177441815686L898.9389587300618,163.45317540782796L899.0414369515313,223.72975588570924L899.1439151730008,244.1864360569767L899.2463933944701,278.26884379231035L899.3488716159397,332.81799432333196L899.4513498374091,268.3082805183284L899.6563062803481,270.8181998301597L899.7587845018174,338.12597064489444L899.9637409447564,298.054718062665L900.0662191662259,267.31236029588337L900.1686973876953,295.57238457753135L900.2711756091649,277.07144818397694L900.3736538306342,299.84871450628236L900.5786102735732,287.0835277531468L900.6810884950426,376.4932053025914L900.783566716512,360.7788187808606L900.988523159451,368.7656474394684L901.0910013809204,356.0154261936594L901.1934796023899,362.41940874903486L901.2959578238593,404.4934562864844L901.3984360453288,410.69543853091864L901.5009142667982,376.7135796260099L901.6033924882677,266.32215922243967L901.8083489312065,293.2221613417122L901.9108271526761,311.1315369242463L902.0133053741455,219.6255545353313L902.115783595615,260.11922402444003L902.2182618170845,214.0523001403362L902.3207400385539,204.24107691054064L902.4232182600233,292.29954874309607L902.5256964814928,282.545274608092L902.6281747029623,306.2812315852978L902.7306529244316,333.3611468810759L902.8331311459012,367.41014243000257L902.9356093673706,326.5398688991876L903.0380875888401,248.9637248325356L903.1405658103095,312.62999507981624L903.2430440317789,381.1091140282041L903.3455222532484,357.4857297269635L903.4480004747178,389.69113383609863L903.5504786961874,372.78046501081496L903.6529569176568,332.31051491440127L903.7554351391262,364.85564634049433L903.9603915820652,387.2953734045893L904.0628698035346,395.48610145870856L904.165348025004,356.1781815396189L904.2678262464735,448.73855070808185L904.3703044679429,429.6065268191016L904.4727826894125,366.24922097905375L904.5752609108819,361.2644757058258L904.6777391323513,334.36977975225676L904.8826955752903,393.94769674930734L905.0876520182292,443.2987356820329L905.292608461168,358.0889390446917L905.3950866826375,197.05974244106864L905.497564904107,239.13465525823278L905.6000431255765,214.0883290193525L905.7025213470458,295.79470612687135L905.8049995685154,368.673459364964L905.9074777899848,352.0357083329521L906.0099560114542,342.05884644233964L906.1124342329238,272.32901487853405L906.2149124543931,235.51509701225953L906.3173906758626,270.9073387593855L906.4198688973321,125.77405923967525L906.624825340271,238.43035960116953L906.7273035617405,330.7333278248846L906.8297817832099,258.2473180750096L907.0347382261489,354.13297783488537L907.1372164476182,193.87461420389707L907.2396946690877,114.73224579985592L907.3421728905572,210.96408373979116L907.5471293334961,295.9190351806127L907.6496075549655,302.6519301365041L907.752085776435,343.76056720347566L907.8545639979044,326.5770537929617L907.9570422193739,363.2597032905747L908.0595204408434,313.4927293149312L908.2644768837822,306.75639783815626L908.3669551052518,371.74772883788387L908.4694333267212,376.86858196309566L908.5719115481907,426.05234096796124L908.7768679911295,359.28425059974677L908.879346212599,410.1559218869241L908.9818244340685,370.9416877124089L909.1867808770073,335.03091555496354L909.2892590984769,350.83975323087174L909.3917373199463,320.564114569403L909.4942155414158,374.35905188249205L909.5966937628853,365.0232446070116L909.6991719843546,380.3217530504228L909.8016502058241,292.300833802245L909.9041284272936,301.48104747135756L910.0066066487631,399.73682056665024L910.2115630917019,396.3551893236029L910.3140413131714,366.75324394266516L910.4165195346409,429.82228250480136L910.6214759775797,391.8950431570761L910.7239541990492,342.1522055015179L910.8264324205186,387.4789324399955L911.133867084927,404.86001040806L911.2363453063965,358.3820942522264L911.338823527866,385.85860365069965L911.4413017493354,418.0873096745434L911.5437799708048,346.67654115326536L911.6462581922743,325.0401228002747L911.7487364137437,256.42266007554775L911.8512146352133,282.33062810624966L911.9536928566827,353.68644735172563L912.0561710781521,359.51045733812543L912.1586492996216,300.3727965734788L912.3636057425605,319.0950075451965L912.4660839640298,351.0973040067813L912.5685621854994,216.7515969934262L912.6710404069688,207.19389804972403L912.7735186284383,327.9406688691568L912.8759968499078,413.7425516922109L913.1834315143162,421.41631572183235L913.388387957255,326.91256092033547L913.4908661787246,311.0987806859121L913.5933444001939,366.36619556501563L913.6958226216634,391.2507392409747L914.3106919504801,393.1662207288691L914.4131701719496,355.3010263811441L914.515648393419,269.5015695211821L914.6181266148885,210.36983155116633L914.7206048363579,309.52750922534L914.8230830578275,295.30477500285593L914.9255612792969,246.3465366472357L915.0280395007663,377.3231877988311L915.1305177222358,440.532197514518L915.4379523866442,400.6414759598159L915.5404306081136,353.49580817621853L915.642908829583,319.0892978158706L915.7453870510526,277.1455529524159L915.847865272522,297.91540882696324L915.9503434939913,295.70988419478886L916.0528217154609,330.3157253240094L916.1552999369303,383.40087848750005L916.3602563798693,429.50500686471645L916.4627346013388,319.24828536811447L916.5652128228081,235.0805056199609L916.6676910442776,303.5733663308728L916.7701692657471,119.03157215226355L916.8726474872165,216.75670629834318L916.9751257086859,297.4867990782569L917.0776039301554,414.19316651497553L917.7949514804416,382.87201887663093L917.897429701911,376.2449105190985L917.9999079233805,386.7224654574843L918.2048643663194,356.93300646958676L918.307342587789,315.93505460272985L918.4098208092583,356.7633178308652L918.5122990307278,394.9034619346291L918.8197336951362,409.4143172662502L918.9222119166056,313.72991094655055L919.0246901380751,251.50325674662756L919.1271683595445,302.20344879835676L919.229646581014,343.53157593524344L919.3321248024835,306.88010986426997L919.434603023953,370.83123633283105L919.5370812454223,340.32889008979635L919.6395594668918,341.11793271279726L919.7420376883613,347.7028437976622L919.8445159098306,313.6524108916274L919.9469941313002,311.3483546402904L920.0494723527696,400.2405785710722L920.1519505742391,403.56659243947917L920.2544287957086,376.7581932154099L920.3569070171781,410.65268339704255L920.7668199030558,411.9302345150589L920.8692981245254,355.16834628634945L920.9717763459947,357.4603344577747L921.0742545674642,428.31191854943023L921.1767327889337,420.30385802101597L921.2792110104032,362.5348376432748L921.3816892318725,366.1376979648886L921.4841674533419,314.1632243394743L921.5866456748115,353.88806524574096L921.6891238962809,380.3963034865218L921.7916021177504,428.79796865981564L921.8940803392198,342.2453289339052L921.9965585606893,306.23041912371565L922.0990367821587,266.4349822548309L922.2015150036283,267.82523807270996" fill="none"></path></g></g></g></g><g opacity="0.2"><g><g><g><path style="fill: none;" stroke="rgb(255, 112, 67)" stroke-width="2px" d="M472.01468808831106,-96.22893261909476L472.83451386006675,69.39259298890833L475.08903473239474,80.74026589095597L481.6476409064399,-31.02878819406024L484.7219875505235,-92.7588722035288L499.3763732206556,33.3157539069653L502.0408069788615,121.20047851279382L510.4440211393568,110.22730811312799L514.543149998135,-103.87323110550633L518.0274095280965,319.1534652076662L519.6670610716078,28.13378290086989L526.9430147959391,58.39153786003594L530.8371872117784,-122.4063398614525L532.1694040908814,112.89012326672677L542.1097915734184,-77.75229926407329L548.8733541904026,145.65979816764596L554.3046999282836,174.3189463093877L560.2484367735121,160.06349620223048L562.8103923102485,255.3923845924438L566.4996082831489,168.14353770390156L567.1144776119656,276.4843584671617L567.6268687193129,214.17257782816895L567.8318251622518,281.78704564273363L570.9061718063355,-106.99173215031615L579.3093859668307,-256.7743785977363L579.821777074178,239.30854338034996L580.4366464029947,138.64731822907927L585.7655139194064,196.26122793927797L586.2779050267538,130.56957104057076L598.4728133816188,-128.80253198742858L600.4198995895385,292.5787888169289L608.413200864156,185.57078751549128L614.5618941523234,161.25918633118275L626.1419331783718,89.66655597835783L627.2691936145359,128.6877047903836L629.9336273727417,299.40666478872305L630.446018480089,10.973026387393517L631.1633660303752,373.71840921044355L635.8773642179701,109.65884790569548L637.1071028756036,123.50608675554399L638.541797976176,261.251001495868L638.9517108620538,312.44189326465136L639.7715366338094,234.03074067831048L641.5136663987902,229.60006899014124L641.8211010631985,71.25522230565552L642.845883277893,340.04512789472943L643.9731437140571,249.05496218055495L644.0756219355266,246.83618486672648L645.30536059316,216.4257698394359L646.7400556937323,267.42852792888885L647.7648379084269,351.91943391039973L648.3797072372436,198.91892500966796L648.7896201231215,135.01030240952971L650.5317498881022,250.1011689826847L652.068923210144,102.54700655862693L653.2986618677776,-5.436960265040313L660.6770938135784,369.87755249068147L661.5993978068034,289.0547237992287L666.00596132999,232.9834749624134L669.387742638482,240.38828245177874L669.4902208599515,155.46781045198443L670.1050901887681,204.77065897360453L671.8472199537489,348.90594181418425L672.2571328396268,229.21374195069083L674.2042190475464,141.15429657325151L674.8190883763631,251.36798281967648L677.1760874701606,4.1006760373712L678.8157390136719,278.90768262371427L679.0206954566108,2.0393239036202853L679.2256518995497,251.04483763501057L679.9429994498358,407.6299461238087L680.0454776713053,351.15278034284717L682.6074332080418,149.6633746363223L683.5297372012668,143.8645863607526L684.6569976374308,240.87697115540513L685.2718669662476,200.20779955014595L688.2437353888618,292.804160963744L688.756126496209,70.04100118577485L688.9610829391479,107.78015839681034L689.4734740464952,363.98575628921395L691.1131255900065,306.76082090288406L691.3180820329454,176.2839372903109L691.9329513617622,348.791226156056L692.8552553549872,252.04745248705157L693.1626900193955,403.48871086537844L693.3676464623345,237.2293661981822L693.470124683804,262.7816613465548L695.3147326702542,158.103799790144L697.1593406567044,391.9285492673517L697.6717317640516,170.67804780602458L697.8766882069906,188.30684420466426L698.2866010928683,176.1475138999522L702.2832517301772,243.6080862469972L702.488208173116,252.05115868523725L704.5377726025051,390.5369600914419L704.742729045444,354.76914734393364L705.1526419313219,224.04536033794292L706.4848588104248,427.0555426999927L707.0997281392416,103.44725974649195L707.7145974680583,143.18988180533054L709.8666401189168,222.17849536612638L711.3013352194893,187.09474091231826L711.6087698838976,277.06093701347714L711.8137263268364,-148.5911595001816L711.9162045483059,263.64220526814466L712.5310738771227,113.73796022310857L712.7360303200616,390.4693660959602L713.760812534756,183.26659115776422L716.0153334070841,116.84357781708245L717.3475502861871,300.89108540490275L718.7822453867594,160.86932957917455L720.0119840443929,164.83125543966892L720.934288037618,124.02813124284152L722.8813742455377,225.09386145323523L723.0863306884766,284.78783077374106L723.188808909946,85.62944724038248L723.2912871314155,117.06436133757238L723.4962435743545,64.22897648811345L724.521025789049,437.3949532099069L724.6235040105183,275.3052579872311L725.2383733393351,172.7462828792632L725.6482862252129,354.79103156179195L725.8532426681519,273.5227531455458L726.3656337754992,327.44670134782797L727.3904159901937,303.5106615796686L727.5953724331325,101.03540715575222L727.6978506546021,191.7682568244637L727.902807097541,260.24785718694335L728.9275893122356,158.91775150597098L729.1325457551744,354.3374634981156L729.7474150839912,200.4963535517455L730.4647626342773,348.0355146974326L730.7721972986857,117.63758665695791L730.9771537416246,308.4727314934135L732.9242399495442,89.04956222325568L733.7440657212999,456.2928577587009L734.3589350501167,406.1930001415313L734.5638914930555,75.65695035085086L734.7688479359945,180.29545561224225L735.1787608218723,256.373821169138L735.7936301506891,85.9831244386733L736.8184123653836,323.62490507587796L737.5357599156697,329.3677474074066L737.7407163586087,232.6428577005864L738.5605421303643,107.46107238158588L739.2778896806506,135.78736862912777L739.3803679021199,382.53016012534505L739.5853243450589,288.55032787472015L740.4051501168145,106.40974749624733L741.429932331509,231.84355429187426L741.634888774448,208.07764666900047L742.0448016603258,354.1247983165086L743.4794967608982,341.2900575138629L744.094366089715,126.90325860679154L744.1968443111843,294.2086335904897L744.4018007541233,-234.8470982462167L744.9141918614705,325.735673185438L745.221626525879,224.07042129710325L745.4265829688178,314.671612687409L745.8364958546956,175.4119218029082L745.9389740761651,52.80400288105015L747.3736691767375,175.69376935064795L749.0133207202488,204.29732451960453L749.2182771631877,123.52391180396084L749.525711827596,209.0781436935068L749.6281900490656,329.9485616087914L750.857928706699,346.6831053309143L751.3703198140462,41.472919628024144L751.8827109213935,261.9883584491909L752.6000584716796,78.19675502181057L752.7025366931491,239.69045827910313L753.6248406863742,-6.169022649526512L755.0595357869466,245.8909278437496L755.4694486728245,421.3921189010144L755.5719268942938,132.2851878292859L755.8793615587023,228.98007497936496L755.9818397801718,270.3204214274884L756.0843180016412,312.18475370481616L756.1867962231106,271.259677939117L756.5967091089884,303.48224739357835L756.9041437733968,349.2813267447055L757.1091002163357,120.81326904520397L757.5190131022135,147.03938632085922L759.3636210886638,484.7569892816246L761.4131855180528,266.3487888574601L761.5156637395223,226.78353485465058L761.9255766254001,336.14108932018286L762.1305330683391,268.996955703944L762.335489511278,262.3939224220813L762.5404459542168,5.890240304172081L762.6429241756863,202.12090375646957L763.0528370615641,429.1670167520643L763.1553152830336,325.0359076708556L763.4627499474419,296.3599933944643L763.8726628333197,176.69267800450328L764.1800974977282,121.72393488511447L764.385053940667,131.52965285629037L764.4875321621365,242.66194679588088L765.6147925983005,21.293199963867707L767.1519659203423,222.31562469899663L767.2544441418119,242.94644162803897L767.3569223632812,135.9534416049719L768.1767481350369,183.3234195299447L768.7916174638536,371.75235931575304L769.099052128262,248.28513187170037L769.3040085712009,43.61474920809273L770.1238343429565,373.6171064600349L770.226312564426,234.99964677542457L770.6362254503039,333.8916035071016L770.8411818932427,353.71658705919987L771.2510947791205,218.8192679248751L771.4560512220595,293.71553274616605L771.6610076649984,329.65135981142527L771.7634858864678,271.7471312433482L772.2758769938151,139.17695159837606L772.6857898796928,300.26791465282446L773.4031374299792,366.4892049208284L774.0180067587959,267.48129713162785L774.2229632017347,243.34565211832532L774.4279196446737,139.7805324457586L774.5303978661431,346.1711205244065L775.0427889734905,347.77537488192326L775.3502236378988,243.74574503675112L775.6576583023071,293.94355217739945L775.7601365237766,254.73126943036922L776.9898751814101,78.1042765527964L777.6047445102269,473.41637580469256L777.7072227316962,300.6212388798595L777.8097009531657,151.91462530568245L778.0146573961046,401.4091807119549L778.117135617574,141.55915460363033L778.7320049463908,24.248981259763283L778.8344831678602,241.7712238319219L779.2443960537381,262.01694912090903L779.3468742752075,201.61562540382155L779.8592653825548,457.3023555502296L780.1667000469632,296.62966343387967L780.6790911543104,152.26512576267126L780.8840475972494,361.50683915987617L781.2939604831272,-37.525930099189196L782.2162644763523,270.1059913896025L782.3187426978217,300.40274967253214L782.5236991407606,104.64471473172311L782.62617736223,249.9596275091172L783.1385684695774,334.85680340603L784.0608724628025,316.1165005229414L784.6757417916192,268.30019044503575L785.290611120436,425.4216387569905L785.3930893419054,64.35075157135729L785.9054804492527,384.1111183799804L786.212915113661,388.76627978682524L786.6228279995389,172.03557525575164L786.8277844424778,108.85601478442554L787.0327408854167,274.155630607158L787.2376973283556,374.5007699988783L788.0575231001112,231.0580167621375L788.467435985989,415.91082827001816L788.7748706503974,243.52001991868028L788.8773488718668,52.96848748624329L789.2872617577447,340.0947203561664L789.4922182006836,248.21630247682342L789.9021310865614,406.5999759994448L790.0046093080308,241.8172865808011L790.2095657509698,6.583828821778339L790.6194786368476,426.4498440250755L791.849217294481,83.48144066333775L791.9516955159505,321.30606041103607L792.05417373742,404.49309057369834L792.1566519588895,302.59699548408395L792.2591301803589,221.12893533706674L792.3616084018283,282.26655709370976L792.6690430662367,284.8787208721042L792.976477730645,346.0742299146951L793.0789559521146,117.71471087634568L793.7963035024007,221.65680385008463L794.2062163882786,284.12618615478283L794.4111728312174,224.76701007038363L794.7186074956259,170.19818338379267L795.0260421600342,-70.74087823927394L795.1285203815037,240.99627543985852L795.640911488851,265.46918448805815L796.0508243747288,341.8606355488301L796.3582590391371,213.27020681276926L796.4607372606065,143.5481476299465L796.5632154820761,291.34233050793415L796.7681719250149,441.8222716711462L797.3830412538316,181.19147314503792L797.4855194753011,66.88861490041022L797.69047591824,262.95126403495675L798.4078234685262,142.26880331337455L798.6127799114652,297.59027470648294L799.2276492402818,119.8133014775813L800.149953233507,286.1488879360259L800.6623443408541,377.3250695019961L800.7648225623237,319.6919228583575L801.5846483340792,24.309692315757317L801.8920829984877,274.58201988413936L802.3019958843655,296.2274526879192L802.5069523273044,230.3190714381636L802.6094305487738,134.33595082536343L802.7119087702433,410.6086705513299L803.0193434346518,133.0664897039533L803.531734541999,345.2893983274699L804.0441256493463,134.07033995538953L804.4540385352241,294.8688663244248L804.658994978163,209.1259712986649L804.8639514211019,328.50896834209567L804.9664296425714,-7.5523170009254565L805.1713860855102,334.8123290278018L805.6837771928575,462.08176283910876L805.8887336357965,325.7605576589704L806.8110376290215,168.2432520836592L807.1184722934298,303.32041007280355L807.2209505148994,250.53144094347962L808.3482109510634,195.26090740039953L808.4506891725327,390.6867963895202L808.6556456154717,319.3562471941114L809.4754713872275,105.98247579112653L809.6804278301663,271.3189771100879L809.7829060516358,22.535305812954945L809.8853842731052,464.435198687017L810.8076882663303,472.2960450388492L811.1151229307387,307.8783278986812L811.422557595147,301.79310344904667L811.8324704810249,253.13513341173538L812.0374269239638,293.72912213951355L812.1399051454332,198.54424602165827L812.3448615883722,161.1202921420336L812.549818031311,226.78565268218526L812.6522962527805,128.75847552716735L812.75477447425,373.62628371268517L812.9597309171888,426.8649382218719L813.0622091386583,168.352320201695L814.0869913533529,324.32325870543724L814.3944260177612,322.43856868520385L814.8043389036391,356.7971436940134L815.009295346578,361.3630033731461L815.2142517895169,276.97375311329967L815.4192082324557,466.99035760760313L815.5216864539252,213.3616263680161L815.6241646753947,264.15136630460626L816.0340775612725,313.05341596528893L816.3415122256808,310.4641953185201L816.7514251115587,136.1512819938362L816.9563815544976,185.28011568635705L817.1613379974365,268.4457910880447L817.7762073262533,367.01636749133473L817.8786855477227,307.86244419217115L817.9811637691921,351.923846051097L818.1861202121311,443.57177370041614L818.3910766550699,260.293213993311L818.4935548765395,305.9706947468222L818.8009895409479,266.0676472522319L818.9034677624172,315.0376438796521L819.2109024268257,150.97660419344905L819.518337091234,388.40483722090727L819.6208153127035,269.6255975104869L819.8257717556423,445.10349246487027L820.0307281985812,240.18426506593832L820.5431193059286,270.9822425320745L820.7480757488674,136.50407676398757L820.8505539703369,331.80342555791145L820.9530321918063,218.000727582723L821.3629450776842,199.26289549842485L821.5679015206231,303.8101576901973L821.9778144065009,452.93468923121696L822.0802926279704,404.3136046901346L822.1827708494399,209.81814793124803L822.4902055138482,502.2158300206066L822.7976401782565,364.65128359198576L823.8224223929511,276.77450083941227L823.9249006144206,169.62795832008126L824.0273788358901,359.6369739323855L824.2323352788289,429.1924306824804L824.5397699432373,285.4990678541363L824.6422481647068,203.6815661638976L824.8472046076456,263.24228883534676L824.9496828291152,477.1471054926515L825.0521610505846,369.5383471138776L825.154639272054,335.9430724456907L825.6670303794014,317.5703891254962L825.9744650438097,354.2458674572409L826.5893343726265,216.8634541966022L827.2042037014431,295.92372092232114L827.3066819229126,386.96012587100273L827.409160144382,279.1775291487575L827.5116383658516,333.16201192140585L827.614116587321,337.68180885165935L827.8190730302599,201.803582597524L827.9215512517293,141.79917505756023L828.1265076946682,112.2650111727417L828.4339423590766,92.72593433782463L828.7413770234849,410.47154121845966L828.9463334664239,395.3673717267812L829.0488116878932,354.9685761034489L829.9711156811184,261.5376141555608L830.1760721240573,356.888916220516L830.4835067884658,304.6204032078386L830.5859850099351,228.26354333013305L830.6884632314046,230.10375897213825L830.7909414528741,360.90114048495894L831.2008543387519,220.32663167268046L831.3033325602213,355.55733215808874L831.4058107816909,395.0915246903897L831.6107672246296,287.5740093812347L831.9182018890381,217.58122124522933L832.123158331977,277.61616079881793L832.6355494393243,360.19449203088885L832.8405058822632,121.95883725583558L833.0454623252022,192.41119396686562L833.1479405466715,180.2829251326621L833.5578534325493,269.3702228069306L833.7628098754883,322.4920438304544L833.8652880969577,449.3825629986823L834.0702445398966,165.75868741422894L834.1727227613661,95.76748764887456L834.6851138687134,270.4210182353855L834.7875920901828,157.0718883238733L834.8900703116524,390.99758758023387L834.9925485331217,214.3949497193099L835.8123743048774,333.8757198005915L835.9148525263469,394.3539912514389L836.0173307478163,-41.34931474179021L836.1198089692857,9.876344695687337L836.427243633694,235.8857811130584L836.7346782981025,156.66650083661082L837.5545040698581,486.88452352583414L837.6569822913276,263.61679133772856L837.759460512797,385.8796808570624L838.7842427274917,444.91500581428414L838.9891991704304,210.21506410837182L839.3991120563084,460.23995882645255L839.5015902777778,190.18429831415423L839.6040684992472,285.1358604319394L839.8090249421862,432.17044916749006L840.1164596065945,-11.65984350442878L840.423894271003,309.3219803348184L840.5263724924723,256.39323458820587L840.9362853783501,277.17353484407073L841.0387635998196,329.0959595404566L841.4486764856974,358.2549149803818L841.5511547071668,154.72851215675476L841.9610675930447,183.01439319550994L842.0635458145142,240.39269459247598L842.7808933648004,255.98202307522305L842.8833715862697,199.00963862240323L843.1908062506782,216.6386115066708L843.4982409150865,334.68049426376825L843.600719136556,337.43472897261387L844.0106320224338,271.93332358077174L844.4205449083116,38.84751942753796L844.5230231297811,258.77384922280913L844.6255013512506,75.24662126600747L845.0354142371284,364.24466070532804L845.2403706800673,301.5867917500437L845.3428489015367,366.9284776486457L845.5478053444757,288.8632368929685L846.1626746732924,286.3945559300483L846.2651528947619,234.92005175724634L846.6750657806397,279.4719071760774L846.8800222235786,337.5141475051642L846.982500445048,20.946229219436688L847.8023262168037,232.82604978233584L848.0072826597425,391.91072421893483L848.1097608812121,299.06975372508174L848.2122391026815,271.53993711620575L848.3147173241509,347.7658446580172L848.4171955456204,198.74491018056878L848.5196737670899,237.54633438587197L848.8271084314982,29.89369758218531L848.9295866529676,141.35160750523212L849.3394995388454,386.0342822670937L849.7494124247233,388.8891137838364L850.2618035320705,325.50783023983246L850.3642817535401,277.54097792133695L850.4667599750095,204.37003659829506L850.569238196479,276.6649032644928L850.6717164179485,352.70903060957795L850.7741946394178,292.4706031270326L850.9791510823568,349.5861174240709L851.0816293038263,228.0309352725745L851.1841075252956,387.741604231298L851.2865857467651,174.69080152735117L851.5940204111735,361.11715889349585L851.6964986326429,402.9926097653807L852.1064115185208,326.9214801192284L852.3113679614597,304.8655417449773L852.4138461829291,437.70345008745795L852.618802625868,374.293399386108L853.1311937332154,245.82068656384953L853.8485412835015,460.2780797220767L854.0534977264405,316.10238167271024L854.1559759479098,75.00730675458912L854.5658888337878,155.61023435369137L854.7708452767266,312.7253291830421L854.9758017196656,487.8892562054098L855.078279941135,311.16007814928895L855.3857146055433,204.55728784948596L855.4881928270128,282.1620776019991L855.7956274914211,319.53767441958195L856.1030621558294,245.71603058651098L856.4104968202379,519.0961508713663L856.7179314846462,368.94147272035485L857.0253661490545,242.09383955970415L857.4352790349325,374.09114685654646L857.537757256402,265.6712605319918L857.8451919208103,302.3850362449885L857.9476701422797,220.14149824902424L858.0501483637491,289.1127875708044L858.1526265852186,306.5951008982957L858.2551048066881,367.8423202298582L858.5625394710964,80.24557667598133L858.6650176925659,125.70350930839781L858.9724523569743,276.65396115556365L859.0749305784437,79.95102216303353L859.2798870213826,238.72331703826794L859.3823652428522,319.336127832532L859.587321685791,429.9140804149211L860.4071474575467,423.3447558879853L860.5096256790162,377.0846960768104L860.714582121955,391.6812929026783L861.2269732293023,465.3192151971162L861.5344078937106,302.1296615414322L861.7393643366496,288.1834142543376L861.841842558119,458.1242491193116L862.1492772225274,119.44991756975655L862.4567118869358,283.49242626503116L862.5591901084052,367.0084256380797L862.8666247728136,423.2136270664633L862.969102994283,279.26859573274857L863.0715812157525,460.607048932463L863.4814941016302,173.3879846222699L863.5839723230998,50.619110807776494L863.6864505445692,262.06565915420657L863.7889287660387,536.4416878372431L863.9938852089776,232.11093001812705L864.301319873386,236.06561996787795L864.4037980948553,549.3239032737911L864.7112327592638,301.0931614488364L864.8137109807332,481.91504121571785L864.9161892022028,376.76719843223697L865.0186674236721,132.82682222127917L865.1211456451415,364.4289117008448L865.3261020880805,292.1827550679446L865.5310585310194,388.45107645541435L865.6335367524889,271.7471312433482L865.7360149739583,487.5606399662793L865.8384931954279,355.84288590401417L865.9409714168972,373.9146612286568L866.1459278598362,161.3010134249926L866.2484060813056,103.94847892969851L866.555840745714,451.76847220212227L866.8632754101224,431.6353447437287L867.2731882960002,152.83376245573166L867.3756665174695,368.60967973992234L867.4781447389391,445.1578500382603L867.5806229604085,323.2255180999637L867.8880576248168,523.377339232713L868.0930140677558,479.43435923010117L868.2979705106947,235.39497458189734L868.4004487321643,27.59408985078339L868.5029269536336,265.0833869054914L868.6054051751031,443.1490906216205L868.7078833965726,402.59675250202423L868.810361618042,274.59772710502153L869.2202745039198,291.92314470931893L869.3227527253893,321.33871025219565L869.4252309468587,348.6071516461671L869.5277091683282,308.52479475364095L869.6301873897976,398.3637447170914L870.2450567186144,508.34570533409715L870.3475349400838,356.0656107664109L870.4500131615533,482.5438595078886L870.5524913830227,349.14560929685837L870.6549696044922,464.91682796552783L870.7574478259617,441.9701666273177L871.1673607118395,305.0988557450474L871.3723171547784,237.62539994716653L871.5772735977173,239.16382516548046L871.6797518191868,320.97938551381236L871.7822300406561,344.31625657528645L871.8847082621256,276.3892327137292L871.9871864835951,-8.530047379434025L872.0896647050646,200.4880587272347L872.192142926534,37.59341255575423L872.2946211480036,434.14002877473837L872.4995775909423,122.15720710158352L872.6020558124119,550.4112312272191L872.8070122553507,-71.50470803678027L873.0119686982897,288.30677770823246L873.1144469197591,276.4797698408366L873.6268380271064,411.32961434125906L873.7293162485759,194.73056808859118L873.8317944700453,260.0801958404482L874.0367509129842,142.2049155160785L874.1392291344537,167.68961666896942L874.2417073559232,373.86118608340627L874.3441855773925,23.09511822462086L874.446663798862,217.8131233602763L874.8565766847399,-45.52425875514737L875.0615331276788,316.43611599504953L875.1640113491483,337.0067513249815L875.2664895706176,196.9129893630744L875.3689677920871,286.7383499331773L875.5739242350261,509.9368997551501L875.6764024564955,422.8301237970591L875.7788806779649,276.56060025841003L875.9838371209039,418.4414556883276L876.0863153423733,34.61715892702345L876.1887935638428,210.30330692231664L876.2912717853122,445.7603719718755L876.3937500067816,365.4673531353474L876.70118467119,402.0222917832435L877.2135757785373,183.5053762122989L877.4185322214763,143.67027568444612L877.5210104429457,410.9528175257147L877.6234886644152,89.01832426711921L877.7259668858846,331.75400958210236L877.9309233288235,174.1572854742408L878.2383579932318,502.710872206837L878.4433144361708,333.29331722855574L878.6482708791096,235.8619555532933L878.7507491005791,223.5674372576178L878.8532273220486,360.3175025135279L879.0581837649876,236.50489269569525L879.160661986457,205.53519471362242L879.2631402079264,479.2887585870922L879.3656184293959,484.1373482421041L879.4680966508654,142.72131246328357L879.5705748723348,429.95043645426637L879.6730530938042,235.8010680116714L879.8780095367431,318.03984089568263L879.9804877582127,421.9175166152418L880.4928788655599,410.6637340672315L880.6978353084988,368.81757980957633L880.8003135299682,72.01128673553471L880.9027917514377,323.6039032861591L881.0052699729072,376.08508148044353L881.1077481943767,363.5305998548866L881.210226415846,80.16986434161667L881.415182858785,346.76905383169657L881.5176610802544,402.8184184506536L881.620139301724,93.56777078285818L881.9275739661323,165.12139781191948L882.0300521876018,218.8805084377528L882.1325304090711,254.91446151211866L882.2350086305407,163.29318319261077L882.5424432949491,385.7690243683756L882.7473997378879,118.03662066161637L882.8498779593574,412.02796797081834L882.9523561808269,205.92646335065373L883.0548344022963,385.47905848175293L883.1573126237657,315.6131635122002L883.2597908452352,369.5704674981535L883.3622690667046,368.1522289924324L883.5672255096435,386.19682553038007L883.669703731113,276.6239585988224L883.7721819525824,339.6953333802522L883.874660174052,351.80665959417826L883.9771383955214,434.7100773528219L884.0796166169908,438.2334364280105L884.1820948384603,271.58741175010806L884.2845730599297,287.66542893648153L884.3870512813992,350.49219463765627L884.4895295028687,178.18962910026315L884.5920077243381,296.7740286774934L884.6944859458075,287.8105001226068L885.001920610216,319.230589427054L885.1043988316853,432.5712480284274L885.2068770531548,89.97770014032726L885.3093552746243,404.35666718333965L885.4118334960937,287.98698575049644L885.6167899390326,421.78056376799947L885.8217463819716,325.1409166194499L885.9242246034411,342.5685194022954L886.1291810463799,289.91385583579546L886.2316592678494,101.33472678065304L886.3341374893188,230.23312293738135L886.5390939322577,350.04674491286283L886.7440503751967,109.51836534589533L886.9490068181356,103.71269413083796L887.1539632610745,298.7811997234822L887.2564414825439,448.29258776083594L887.3589197040134,13.251455843448682L887.4613979254829,-123.09075112640849L887.6663543684217,347.2296813204885L887.8713108113607,302.2712030149997L887.97378903283,456.49140409007674L888.178745475769,11.62143458426003L888.2812236972385,280.76325251534587L888.4861801401775,162.5265296250582L888.5886583616468,114.7282210811973L888.6911365831164,-79.85212526470414L888.7936148045858,187.6079611182213L888.8960930260552,221.16970351710924L888.9985712475248,321.8824624717236L889.3060059119331,211.2250913567842L889.4084841334026,257.72146542370325L889.6134405763414,305.1103273108602L889.7159187978109,167.96211047843101L889.8183970192803,204.60652733966717L889.9208752407498,296.8659776896239L890.1258316836887,84.86402907222514L890.3307881266277,391.6251704730094L890.7407010125054,510.0842652544379L890.8431792339749,78.91381612792615L890.9456574554443,173.68342156335714L891.2530921198528,319.38766163587576L891.4580485627915,111.6196032315493L891.5605267842611,440.265138976276L891.7654832272,166.137602057308L891.8679614486695,348.8556434102357L891.970439670139,282.69771148264414L892.0729178916083,183.29571128636601L892.3803525560166,369.48257765546447L892.4828307774861,-24.907913647591982L892.5853089989556,344.60904623195535L892.6877872204251,347.4951157048345L892.7902654418945,412.2104541100562L892.8927436633641,189.13120857253674L893.0977001063029,335.55250975117093L893.2001783277724,432.3301686607302L893.3026565492418,223.28205999732026L893.4051347707112,344.1164748445154L893.6100912136502,317.896887537092L893.7125694351196,467.9574988484383L893.8150476565892,453.50509078055626L893.9175258780585,371.99714488163596L894.020004099528,395.5475635528565L894.4299169854057,466.7198051400483L894.5323952068753,339.3785416781903L894.6348734283447,55.54164794087414L894.8398298712837,230.32524843513974L894.9423080927531,351.41503798589116L895.2497427571615,241.45654995739469L895.3522209786308,381.7875086031855L895.4546992001004,334.25975252687937L895.5571774215698,269.8419688902796L895.6596556430393,462.49562163650995L895.7621338645088,404.1314715221525L895.8646120859783,243.95276267826566L895.9670903074476,350.4503675438464L896.0695685289171,454.88397299125796L896.274524971856,365.10591056942945L896.3770031933254,239.24800880998382L896.5819596362644,344.5132145360113L896.6844378577338,443.29416180774575L896.7869160792034,533.3436591252685L896.8893943006727,111.61219083517794L896.9918725221421,337.9333008714021L897.40178540802,148.20825063437226L897.5042636294895,215.94449353218087L897.6067418509589,400.1070697493852L897.7092200724285,249.31333713978538L897.8116982938978,258.2998088262976L897.9141765153672,324.3465548083187L898.0166547368368,412.33787673339253L898.2216111797757,359.2845321334899L898.3240894012451,199.14164987206468L898.4265676227146,18.267883330583615L898.529045844184,450.1271558627487L898.734002287123,-10.888601310551083L898.8364805085923,185.1856958754361L898.9389587300618,145.75527689233425L899.0414369515313,314.14462660253054L899.1439151730008,274.87145631387835L899.2463933944701,329.3924553953112L899.3488716159397,414.6417201198638L899.4513498374091,171.54370981082323L899.6563062803481,274.5830787979067L899.7587845018174,439.08762686699635L899.9637409447564,237.9478391893209L900.0662191662259,221.19882364571103L900.1686973876953,337.96242100000387L900.2711756091649,249.32004359364518L900.3736538306342,334.01461398974067L900.5786102735732,267.93574762344366L900.6810884950426,510.6077216267586L900.783566716512,337.20723899826413L900.988523159451,380.74589042738086L901.0910013809204,336.89009432494646L901.1934796023899,372.0253825820983L901.2959578238593,467.60452759265905L901.3984360453288,419.99841189756995L901.5009142667982,325.7407912686468L901.6033924882677,100.73502861708407L901.8083489312065,333.57216452062136L901.9108271526761,337.9956002980471L902.0133053741455,82.36658095195894L902.115783595615,320.8597282581032L902.2182618170845,144.95191431418064L902.3207400385539,189.524242065847L902.4232182600233,424.38725649192935L902.5256964814928,267.91386340558535L902.6281747029623,341.88516705110675L902.7306529244316,373.9810198247433L902.8331311459012,418.48363575339323L902.9356093673706,265.23445860296493L903.0380875888401,132.59950873255733L903.1405658103095,408.12940045073634L903.2430440317789,483.8277924507857L903.3455222532484,322.05065327510243L903.4480004747178,437.999239999801L903.5504786961874,347.41446177288896L903.6529569176568,271.6055897697807L903.7554351391262,413.6733434796334L904.0628698035346,407.7721935398877L904.165348025004,297.2163016609848L904.2678262464735,587.5791044607759L904.3703044679429,400.908490985632L904.4727826894125,271.21326221898204L904.5752609108819,353.7873577959836L904.6777391323513,294.0277358219028L904.8826955752903,483.31457224488264L905.0876520182292,517.3252940811217L905.292608461168,230.27424408867964L905.3950866826375,-44.484052464365874L905.497564904107,302.2470244839788L905.6000431255765,176.518839661032L905.7025213470458,418.35427178815013L905.8049995685154,477.9915892221034L905.9074777899848,327.07908178493386L906.0099560114542,327.0935536064208L906.1124342329238,167.7342675328255L906.2149124543931,180.29422021284702L906.3173906758626,323.9957013800741L906.4198688973321,-91.92586003988973L906.7273035617405,469.18778016045695L906.8297817832099,149.518303450197L907.0347382261489,497.9614674746991L907.2396946690877,-3.981306806206619L907.3421728905572,355.31184064969426L907.5471293334961,423.3514623418451L907.6496075549655,312.7512725703419L907.752085776435,405.4235228039325L907.8545639979044,300.8017836771906L907.9570422193739,418.2836775369943L908.0595204408434,238.84226835146555L908.2644768837822,296.65190062299376L908.3669551052518,469.2347253374756L908.5719115481907,499.82797947525984L908.7768679911295,259.1321150474251L908.879346212599,486.4634288176895L908.9818244340685,312.12033645063644L909.1867808770073,281.1647573187948L909.2892590984769,374.55300974473363L909.3917373199463,275.15065657719975L909.4942155414158,455.0514578521252L909.5966937628853,351.0195336937905L909.6991719843546,403.2695157155395L909.8016502058241,160.26945492997768L909.9041284272936,315.2513679750264L910.0066066487631,547.120480209589L910.1090848702324,470.6033713817597L910.2115630917019,348.76281196996575L910.3140413131714,322.35032587125903L910.4165195346409,524.4258403480053L910.5189977561103,351.5041632279754L910.6214759775797,381.9950557015837L910.7239541990492,267.5379490181804L910.8264324205186,455.4690228477121L911.133867084927,424.4267892725766L911.2363453063965,288.6652200184763L911.338823527866,427.07336774840957L911.4413017493354,466.4303687103093L911.5437799708048,239.56038837134847L911.6462581922743,292.5854952707887L911.7487364137437,153.49646598845723L911.8512146352133,321.19258015230304L911.9536928566827,460.72017621994024L912.0561710781521,368.2464723177255L912.1586492996216,211.66630542650827L912.3636057425605,347.1783240027726L912.4660839640298,399.1007486991585L912.5685621854994,15.233036473393483L912.6710404069688,192.85734963417062L912.7735186284383,509.06082509830594L913.1834315143162,413.81170821189886L913.388387957255,185.1569287180901L913.4908661787246,287.3781103342772L913.5933444001939,449.2673178836704L914.2082137290107,537.0288555212319L914.3106919504801,287.4704123176635L914.4131701719496,298.503234859556L914.515648393419,140.80238423123959L914.6181266148885,121.67222459614281L914.7206048363579,458.2640257366002L914.8230830578275,273.97067366912967L914.9255612792969,172.90917911380532L915.0280395007663,573.7881645262241L915.4379523866442,389.6467665843666L915.5404306081136,282.77730650082236L915.642908829583,267.47953227534896L915.7453870510526,214.22993565723309L915.847865272522,329.0701926387847L915.9503434939913,292.40159724652773L916.0528217154609,382.2244870178402L916.3602563798693,448.012681555003L916.4627346013388,153.8632031232119L916.5652128228081,108.82883599773054L916.6676910442776,406.31265739724046L916.7701692657471,-157.78111911565057L916.8726474872165,363.344407517463L916.9751257086859,418.58193824812776L917.0776039301554,589.2527176700532L917.1800821516249,356.92103660479194L917.2825603730943,462.29619287699467L917.5899950375027,513.2034722417593L917.6924732589722,343.47547904402023L917.7949514804416,334.79962206259376L917.897429701911,366.30424798280006L917.9999079233805,402.438797865063L918.2048643663194,312.2488179877401L918.307342587789,254.43812680244454L918.4098208092583,418.0057126730681L918.8197336951362,387.0047767348588L918.9222119166056,170.20330146700147L919.0246901380751,158.1632754467428L919.1271683595445,378.25373687595135L919.229646581014,405.5237666405738L919.3321248024835,251.90291075780996L919.434603023953,466.7579260356725L919.5370812454223,294.57537072524434L919.6395594668918,342.3014966472984L919.7420376883613,357.5802104249597L919.8445159098306,262.57676153257495L919.9469941313002,307.8922702632845L920.0494723527696,533.5789144672453L920.1519505742391,408.5556132420898L920.2544287957086,336.5455943793059L920.3569070171781,461.49441866949206L920.5618634601169,453.7084022238851L920.6643416815864,325.0558505468071L920.7668199030558,432.2128057181836L920.8692981245254,270.0255139432848L920.9717763459947,360.8983167149127L921.0742545674642,534.5892946869135L921.1767327889337,408.2917672283948L921.2792110104032,275.88130707666284L921.3816892318725,371.5419884473086L921.4841674533419,236.20151390135297L921.5866456748115,413.4753266051412L921.7916021177504,501.40046641975647L921.8940803392198,212.41636934503921L921.9965585606893,252.20805440843114L922.0990367821587,206.74182695150384L922.2015150036283,269.91062179952866" fill="none"></path></g></g></g></g></g></g><g transform="translate(70, 379)" clip-path="url(#clip_1)"><clipPath id="clip_1"><rect width="922" height="21"></rect></clipPath><g><g><line x1="0" y1="0" x2="0" y2="5" style="visibility: inherit;" fill="rgb(0, 0, 0)" stroke="rgb(204, 204, 204)" stroke-width="1px"></line><line x1="102.47822146945529" y1="0" x2="102.47822146945529" y2="5" style="visibility: inherit;" fill="rgb(0, 0, 0)" stroke="rgb(204, 204, 204)" stroke-width="1px"></line><line x1="204.95644293891058" y1="0" x2="204.95644293891058" y2="5" style="visibility: inherit;" fill="rgb(0, 0, 0)" stroke="rgb(204, 204, 204)" stroke-width="1px"></line><line x1="307.43466440836585" y1="0" x2="307.43466440836585" y2="5" style="visibility: inherit;" fill="rgb(0, 0, 0)" stroke="rgb(204, 204, 204)" stroke-width="1px"></line><line x1="409.91288587782117" y1="0" x2="409.91288587782117" y2="5" style="visibility: inherit;" fill="rgb(0, 0, 0)" stroke="rgb(204, 204, 204)" stroke-width="1px"></line><line x1="512.3911073472765" y1="0" x2="512.3911073472765" y2="5" style="visibility: inherit;" fill="rgb(0, 0, 0)" stroke="rgb(204, 204, 204)" stroke-width="1px"></line><line x1="614.8693288167317" y1="0" x2="614.8693288167317" y2="5" style="visibility: inherit;" fill="rgb(0, 0, 0)" stroke="rgb(204, 204, 204)" stroke-width="1px"></line><line x1="717.3475502861871" y1="0" x2="717.3475502861871" y2="5" style="visibility: inherit;" fill="rgb(0, 0, 0)" stroke="rgb(204, 204, 204)" stroke-width="1px"></line><line x1="819.8257717556423" y1="0" x2="819.8257717556423" y2="5" style="visibility: inherit;" fill="rgb(0, 0, 0)" stroke="rgb(204, 204, 204)" stroke-width="1px"></line><line x1="922.3039932250977" y1="0" x2="922.3039932250977" y2="5" style="visibility: inherit;" fill="rgb(0, 0, 0)" stroke="rgb(204, 204, 204)" stroke-width="1px"></line></g><g transform="translate(0, 8)"><text style="text-anchor: middle; visibility: hidden; font-family: Roboto, sans-serif; font-size: 12px; font-weight: 200;" x="0" y="0" dx="0em" dy="0.95em" fill="rgb(33, 33, 33)" stroke="none" stroke-width="1px">1k</text><text style="text-anchor: middle; visibility: hidden; font-family: Roboto, sans-serif; font-size: 12px; font-weight: 200;" x="102.47822146945529" y="0" dx="0em" dy="0.95em" fill="rgb(33, 33, 33)" stroke="none" stroke-width="1px">2k</text><text style="text-anchor: middle; visibility: hidden; font-family: Roboto, sans-serif; font-size: 12px; font-weight: 200;" x="204.95644293891058" y="0" dx="0em" dy="0.95em" fill="rgb(33, 33, 33)" stroke="none" stroke-width="1px">3k</text><text style="text-anchor: middle; visibility: hidden; font-family: Roboto, sans-serif; font-size: 12px; font-weight: 200;" x="307.43466440836585" y="0" dx="0em" dy="0.95em" fill="rgb(33, 33, 33)" stroke="none" stroke-width="1px">4k</text><text style="text-anchor: middle; visibility: hidden; font-family: Roboto, sans-serif; font-size: 12px; font-weight: 200;" x="409.91288587782117" y="0" dx="0em" dy="0.95em" fill="rgb(33, 33, 33)" stroke="none" stroke-width="1px">5k</text><text style="text-anchor: middle; visibility: hidden; font-family: Roboto, sans-serif; font-size: 12px; font-weight: 200;" x="512.3911073472765" y="0" dx="0em" dy="0.95em" fill="rgb(33, 33, 33)" stroke="none" stroke-width="1px">6k</text><text style="text-anchor: middle; visibility: hidden; font-family: Roboto, sans-serif; font-size: 12px; font-weight: 200;" x="614.8693288167317" y="0" dx="0em" dy="0.95em" fill="rgb(33, 33, 33)" stroke="none" stroke-width="1px">7k</text><text style="text-anchor: middle; visibility: hidden; font-family: Roboto, sans-serif; font-size: 12px; font-weight: 200;" x="717.3475502861871" y="0" dx="0em" dy="0.95em" fill="rgb(33, 33, 33)" stroke="none" stroke-width="1px">8k</text><text style="text-anchor: middle; visibility: hidden; font-family: Roboto, sans-serif; font-size: 12px; font-weight: 200;" x="819.8257717556423" y="0" dx="0em" dy="0.95em" fill="rgb(33, 33, 33)" stroke="none" stroke-width="1px">9k</text><text style="text-anchor: middle; visibility: hidden; font-family: Roboto, sans-serif; font-size: 12px; font-weight: 200;" x="922.3039932250977" y="0" dx="0em" dy="0.95em" fill="rgb(33, 33, 33)" stroke="none" stroke-width="1px">10k</text></g><line x1="0" y1="0" x2="922.3039932250977" y2="0" fill="rgb(0, 0, 0)" stroke="rgb(204, 204, 204)" stroke-width="1px"></line></g></g></g></g></svg>