<svg viewBox="0 0 993 400" xmlns="http://www.w3.org/2000/svg"><g><g><g><g><g><line x1="50.46400451660156" y1="379" x2="45.46400451660156" y2="379" style="visibility: inherit;" fill="rgb(0, 0, 0)" stroke="rgb(204, 204, 204)" stroke-width="1px"></line><line x1="50.46400451660156" y1="349.8461538461538" x2="45.46400451660156" y2="349.8461538461538" style="visibility: inherit;" fill="rgb(0, 0, 0)" stroke="rgb(204, 204, 204)" stroke-width="1px"></line><line x1="50.46400451660156" y1="320.6923076923077" x2="45.46400451660156" y2="320.6923076923077" style="visibility: inherit;" fill="rgb(0, 0, 0)" stroke="rgb(204, 204, 204)" stroke-width="1px"></line><line x1="50.46400451660156" y1="291.5384615384615" x2="45.46400451660156" y2="291.5384615384615" style="visibility: inherit;" fill="rgb(0, 0, 0)" stroke="rgb(204, 204, 204)" stroke-width="1px"></line><line x1="50.46400451660156" y1="262.38461538461536" x2="45.46400451660156" y2="262.38461538461536" style="visibility: inherit;" fill="rgb(0, 0, 0)" stroke="rgb(204, 204, 204)" stroke-width="1px"></line><line x1="50.46400451660156" y1="233.23076923076925" x2="45.46400451660156" y2="233.23076923076925" style="visibility: inherit;" fill="rgb(0, 0, 0)" stroke="rgb(204, 204, 204)" stroke-width="1px"></line><line x1="50.46400451660156" y1="204.07692307692307" x2="45.46400451660156" y2="204.07692307692307" style="visibility: inherit;" fill="rgb(0, 0, 0)" stroke="rgb(204, 204, 204)" stroke-width="1px"></line><line x1="50.46400451660156" y1="174.92307692307688" x2="45.46400451660156" y2="174.92307692307688" style="visibility: inherit;" fill="rgb(0, 0, 0)" stroke="rgb(204, 204, 204)" stroke-width="1px"></line><line x1="50.46400451660156" y1="145.7692307692308" x2="45.46400451660156" y2="145.7692307692308" style="visibility: inherit;" fill="rgb(0, 0, 0)" stroke="rgb(204, 204, 204)" stroke-width="1px"></line><line x1="50.46400451660156" y1="116.61538461538463" x2="45.46400451660156" y2="116.61538461538463" style="visibility: inherit;" fill="rgb(0, 0, 0)" stroke="rgb(204, 204, 204)" stroke-width="1px"></line><line x1="50.46400451660156" y1="87.46153846153844" x2="45.46400451660156" y2="87.46153846153844" style="visibility: inherit;" fill="rgb(0, 0, 0)" stroke="rgb(204, 204, 204)" stroke-width="1px"></line><line x1="50.46400451660156" y1="58.307692307692356" x2="45.46400451660156" y2="58.307692307692356" style="visibility: inherit;" fill="rgb(0, 0, 0)" stroke="rgb(204, 204, 204)" stroke-width="1px"></line><line x1="50.46400451660156" y1="29.153846153846178" x2="45.46400451660156" y2="29.153846153846178" style="visibility: inherit;" fill="rgb(0, 0, 0)" stroke="rgb(204, 204, 204)" stroke-width="1px"></line><line x1="50.46400451660156" y1="0" x2="45.46400451660156" y2="0" style="visibility: inherit;" fill="rgb(0, 0, 0)" stroke="rgb(204, 204, 204)" stroke-width="1px"></line></g><g transform="translate(40.46400451660156, 0)"><text style="text-anchor: end; visibility: hidden; font-family: Roboto, sans-serif; font-size: 12px; font-weight: 200;" x="0" y="379" dx="0em" dy="0.3em" fill="rgb(33, 33, 33)" stroke="none" stroke-width="1px">0.04</text><text style="text-anchor: end; visibility: inherit; font-family: Roboto, sans-serif; font-size: 12px; font-weight: 200;" x="0" y="349.8461538461538" dx="0em" dy="0.3em" fill="rgb(33, 33, 33)" stroke="none" stroke-width="1px">0.05</text><text style="text-anchor: end; visibility: inherit; font-family: Roboto, sans-serif; font-size: 12px; font-weight: 200;" x="0" y="320.6923076923077" dx="0em" dy="0.3em" fill="rgb(33, 33, 33)" stroke="none" stroke-width="1px">0.06</text><text style="text-anchor: end; visibility: inherit; font-family: Roboto, sans-serif; font-size: 12px; font-weight: 200;" x="0" y="291.5384615384615" dx="0em" dy="0.3em" fill="rgb(33, 33, 33)" stroke="none" stroke-width="1px">0.07</text><text style="text-anchor: end; visibility: inherit; font-family: Roboto, sans-serif; font-size: 12px; font-weight: 200;" x="0" y="262.38461538461536" dx="0em" dy="0.3em" fill="rgb(33, 33, 33)" stroke="none" stroke-width="1px">0.08</text><text style="text-anchor: end; visibility: inherit; font-family: Roboto, sans-serif; font-size: 12px; font-weight: 200;" x="0" y="233.23076923076925" dx="0em" dy="0.3em" fill="rgb(33, 33, 33)" stroke="none" stroke-width="1px">0.09</text><text style="text-anchor: end; visibility: inherit; font-family: Roboto, sans-serif; font-size: 12px; font-weight: 200;" x="0" y="204.07692307692307" dx="0em" dy="0.3em" fill="rgb(33, 33, 33)" stroke="none" stroke-width="1px">0.1</text><text style="text-anchor: end; visibility: inherit; font-family: Roboto, sans-serif; font-size: 12px; font-weight: 200;" x="0" y="174.92307692307688" dx="0em" dy="0.3em" fill="rgb(33, 33, 33)" stroke="none" stroke-width="1px">0.11</text><text style="text-anchor: end; visibility: inherit; font-family: Roboto, sans-serif; font-size: 12px; font-weight: 200;" x="0" y="145.7692307692308" dx="0em" dy="0.3em" fill="rgb(33, 33, 33)" stroke="none" stroke-width="1px">0.12</text><text style="text-anchor: end; visibility: inherit; font-family: Roboto, sans-serif; font-size: 12px; font-weight: 200;" x="0" y="116.61538461538463" dx="0em" dy="0.3em" fill="rgb(33, 33, 33)" stroke="none" stroke-width="1px">0.13</text><text style="text-anchor: end; visibility: inherit; font-family: Roboto, sans-serif; font-size: 12px; font-weight: 200;" x="0" y="87.46153846153844" dx="0em" dy="0.3em" fill="rgb(33, 33, 33)" stroke="none" stroke-width="1px">0.14</text><text style="text-anchor: end; visibility: inherit; font-family: Roboto, sans-serif; font-size: 12px; font-weight: 200;" x="0" y="58.307692307692356" dx="0em" dy="0.3em" fill="rgb(33, 33, 33)" stroke="none" stroke-width="1px">0.15</text><text style="text-anchor: end; visibility: inherit; font-family: Roboto, sans-serif; font-size: 12px; font-weight: 200;" x="0" y="29.153846153846178" dx="0em" dy="0.3em" fill="rgb(33, 33, 33)" stroke="none" stroke-width="1px">0.16</text><text style="text-anchor: end; visibility: hidden; font-family: Roboto, sans-serif; font-size: 12px; font-weight: 200;" x="0" y="0" dx="0em" dy="0.3em" fill="rgb(33, 33, 33)" stroke="none" stroke-width="1px">0.17</text></g><line x1="50.46400451660156" y1="0" x2="50.46400451660156" y2="379" fill="rgb(0, 0, 0)" stroke="rgb(204, 204, 204)" stroke-width="1px"></line></g></g><g transform="translate(50, 0)" clip-path="url(#clip_0)"><clipPath id="clip_0"><rect width="942" height="379"></rect></clipPath><g><g><g><line x1="0" y1="0" x2="0" y2="379" fill="rgb(0, 0, 0)" stroke="rgb(66, 66, 66)" stroke-width="1px" opacity="0.25"></line><line x1="104.7262217203776" y1="0" x2="104.7262217203776" y2="379" fill="rgb(0, 0, 0)" stroke="rgb(66, 66, 66)" stroke-width="1px" opacity="0.25"></line><line x1="209.4524434407552" y1="0" x2="209.4524434407552" y2="379" fill="rgb(0, 0, 0)" stroke="rgb(66, 66, 66)" stroke-width="1px" opacity="0.25"></line><line x1="314.1786651611328" y1="0" x2="314.1786651611328" y2="379" fill="rgb(0, 0, 0)" stroke="rgb(66, 66, 66)" stroke-width="1px" opacity="0.25"></line><line x1="418.9048868815104" y1="0" x2="418.9048868815104" y2="379" fill="rgb(0, 0, 0)" stroke="rgb(66, 66, 66)" stroke-width="1px" opacity="0.25"></line><line x1="523.6311086018881" y1="0" x2="523.6311086018881" y2="379" fill="rgb(0, 0, 0)" stroke="rgb(66, 66, 66)" stroke-width="1px" opacity="0.25"></line><line x1="628.3573303222656" y1="0" x2="628.3573303222656" y2="379" fill="rgb(0, 0, 0)" stroke="rgb(66, 66, 66)" stroke-width="1px" opacity="0.25"></line><line x1="733.0835520426432" y1="0" x2="733.0835520426432" y2="379" fill="rgb(0, 0, 0)" stroke="rgb(66, 66, 66)" stroke-width="1px" opacity="0.25"></line><line x1="837.8097737630208" y1="0" x2="837.8097737630208" y2="379" fill="rgb(0, 0, 0)" stroke="rgb(66, 66, 66)" stroke-width="1px" opacity="0.25"></line><line x1="942.5359954833984" y1="0" x2="942.5359954833984" y2="379" fill="rgb(0, 0, 0)" stroke="rgb(66, 66, 66)" stroke-width="1px" opacity="0.25"></line></g><g><line x1="0" y1="379" x2="942.5359954833984" y2="379" fill="rgb(0, 0, 0)" stroke="rgb(66, 66, 66)" stroke-width="1px" opacity="0.25"></line><line x1="0" y1="349.8461538461538" x2="942.5359954833984" y2="349.8461538461538" fill="rgb(0, 0, 0)" stroke="rgb(66, 66, 66)" stroke-width="1px" opacity="0.25"></line><line x1="0" y1="320.6923076923077" x2="942.5359954833984" y2="320.6923076923077" fill="rgb(0, 0, 0)" stroke="rgb(66, 66, 66)" stroke-width="1px" opacity="0.25"></line><line x1="0" y1="291.5384615384615" x2="942.5359954833984" y2="291.5384615384615" fill="rgb(0, 0, 0)" stroke="rgb(66, 66, 66)" stroke-width="1px" opacity="0.25"></line><line x1="0" y1="262.38461538461536" x2="942.5359954833984" y2="262.38461538461536" fill="rgb(0, 0, 0)" stroke="rgb(66, 66, 66)" stroke-width="1px" opacity="0.25"></line><line x1="0" y1="233.23076923076925" x2="942.5359954833984" y2="233.23076923076925" fill="rgb(0, 0, 0)" stroke="rgb(66, 66, 66)" stroke-width="1px" opacity="0.25"></line><line x1="0" y1="204.07692307692307" x2="942.5359954833984" y2="204.07692307692307" fill="rgb(0, 0, 0)" stroke="rgb(66, 66, 66)" stroke-width="1px" opacity="0.25"></line><line x1="0" y1="174.92307692307688" x2="942.5359954833984" y2="174.92307692307688" fill="rgb(0, 0, 0)" stroke="rgb(66, 66, 66)" stroke-width="1px" opacity="0.25"></line><line x1="0" y1="145.7692307692308" x2="942.5359954833984" y2="145.7692307692308" fill="rgb(0, 0, 0)" stroke="rgb(66, 66, 66)" stroke-width="1px" opacity="0.25"></line><line x1="0" y1="116.61538461538463" x2="942.5359954833984" y2="116.61538461538463" fill="rgb(0, 0, 0)" stroke="rgb(66, 66, 66)" stroke-width="1px" opacity="0.25"></line><line x1="0" y1="87.46153846153844" x2="942.5359954833984" y2="87.46153846153844" fill="rgb(0, 0, 0)" stroke="rgb(66, 66, 66)" stroke-width="1px" opacity="0.25"></line><line x1="0" y1="58.307692307692356" x2="942.5359954833984" y2="58.307692307692356" fill="rgb(0, 0, 0)" stroke="rgb(66, 66, 66)" stroke-width="1px" opacity="0.25"></line><line x1="0" y1="29.153846153846178" x2="942.5359954833984" y2="29.153846153846178" fill="rgb(0, 0, 0)" stroke="rgb(66, 66, 66)" stroke-width="1px" opacity="0.25"></line><line x1="0" y1="0" x2="942.5359954833984" y2="0" fill="rgb(0, 0, 0)" stroke="rgb(66, 66, 66)" stroke-width="1px" opacity="0.25"></line></g></g></g><g><g><line x1="0" y1="495.61538461538464" x2="942.5359954833984" y2="495.61538461538464" fill="rgb(0, 0, 0)" stroke="rgb(153, 153, 153)" stroke-width="1.5px"></line></g></g><g><g><line x1="104.7262217203776" y1="0" x2="104.7262217203776" y2="379" fill="rgb(0, 0, 0)" stroke="rgb(153, 153, 153)" stroke-width="1.5px"></line></g></g><g><g><g><g><g><path style="fill: none;" stroke="rgb(255, 112, 67)" stroke-width="2px" d="M136.14408823649086,-164.6887272149914L146.61671040852866,20.50001791845028L157.0893325805664,126.70768861000352L167.56195475260418,193.43850198852724L178.03457692464193,234.353145015443L188.5071990966797,263.5268605593591L198.97982126871744,283.54517659619444L209.4524434407552,296.12134957423547L219.92506561279296,305.1836275093728L230.3976877848307,313.946951335435L240.87030995686848,321.47955385268216L251.34293212890626,323.6894035432073L261.81555430094403,325.816981619087L272.2881764729817,326.49220509805866L282.7607986450195,330.95210769222257L293.2334208170573,333.41775363005905L303.70604298909507,335.4947590856052L314.1786651611328,336.7427818306282L324.65128733317056,336.1542098262622L335.12390950520836,338.5378824353976L345.59653167724605,340.7754848646215L356.06915384928385,338.6367469096797L366.5417760213216,342.30413708537867L377.0143981933594,343.6518920226306L387.48702036539714,344.8136154927715L397.9596425374349,341.9865610807935L408.4322647094727,343.65534710008984L418.9048868815104,344.63665659081175L429.3775090535482,343.9578995141829L439.8501312255859,343.0323488024348L450.3227533976237,345.08473970625226L460.7953755696614,346.31633060432915L471.2679977416992,348.40984329051366L481.74061991373696,348.38991091792246L492.21324208577477,348.51838409575976L502.6858642578125,346.7949279543879L513.1584864298502,348.90208992809943L523.6311086018881,350.46609337494806L534.1037307739258,351.07843688698966L544.5763529459634,350.53918256305786L555.0489751180013,350.9814581267778L565.521597290039,350.8148344347197L575.9942194620769,350.7639851297803L586.4668416341146,348.6532041536801L596.9394638061523,349.44850040672065L607.4120859781901,349.46075093680724L617.8847081502279,347.57043655428066L628.3573303222656,348.6535156077043L638.8299524943034,349.18180625565685L649.3025746663411,349.0959893965086L659.7751968383789,349.5224462547843L670.2478190104167,346.14292495977793L680.7204411824545,349.1830800716315L691.1930633544921,350.91490102215516L701.66568552653,348.0703192872497L712.1383076985677,346.80043788229034L722.6109298706056,346.6935889359483L733.0835520426432,347.75722816068486L743.5561742146809,347.9768116796114L754.0287963867188,348.56301934220824L764.5014185587565,347.708898556269L774.9740407307943,343.2505462974987L785.446662902832,344.58933291544764L795.9192850748698,345.4502575820378L806.3919072469075,347.1050740876289L816.8645294189454,347.92056606815595L827.337151590983,350.5741419805391L837.8097737630208,349.98724500295265L848.2823959350586,349.5314787999656L858.7550181070964,346.4478509150388L869.2276402791342,347.28500400594453L879.7002624511719,349.5788085286207L890.1728846232096,348.72241011911643L900.6455067952475,347.41388398569467L911.1181289672852,347.04407102699525L921.5907511393228,349.10173461339144L932.0633733113607,349.43355610440165L942.5359954833984,346.0340060422557L953.0086176554362,348.55646315394273" fill="none"></path></g></g></g></g><g opacity="0.2"><g><g><g><path style="fill: none;" stroke="rgb(255, 112, 67)" stroke-width="2px" d="M104.7262217203776,-3336.1081550304702L115.19884389241535,62.482640665311116L125.67146606445313,185.59925361550773L136.14408823649086,228.38338825794366L146.61671040852866,262.2824435646717L157.0893325805664,273.63113193787063L167.56195475260418,288.86463281283017L178.03457692464193,294.00708732925926L188.5071990966797,306.55242428412805L198.97982126871744,313.27004289627075L209.4524434407552,314.87154407799244L219.92506561279296,318.7277278957459L230.3976877848307,327.0633233017647L240.87030995686848,332.76370047605957L251.34293212890626,327.00158048363835L261.81555430094403,329.0068482000094L272.2881764729817,327.5047545845692L282.7607986450195,337.6408292146829L293.2334208170573,337.11584692047194L303.70604298909507,338.6100774223988L314.1786651611328,338.6147475036291L324.65128733317056,335.2713711869258L335.12390950520836,342.1133442876431L345.59653167724605,344.1318620019234L356.06915384928385,335.42865517850106L366.5417760213216,347.80520670918315L377.0143981933594,345.67352097997303L387.48702036539714,346.5561989144637L397.9596425374349,337.7459820669431L408.4322647094727,346.1585252067217L418.9048868815104,346.1086205014816L429.3775090535482,342.93976403428957L439.8501312255859,341.6440228453049L450.3227533976237,348.1633259149698L460.7953755696614,348.1637168985147L471.2679977416992,351.55011226580694L481.74061991373696,348.36001235934407L492.21324208577477,348.71109386132315L502.6858642578125,344.20974375192935L513.1584864298502,352.0628328816249L523.6311086018881,352.81209854208504L534.1037307739258,351.9969521543154L544.5763529459634,349.73030107754926L555.0489751180013,351.64487147216613L565.521597290039,350.56489889667586L575.9942194620769,350.68771117237895L586.4668416341146,345.48703268972724L596.9394638061523,350.64144478623683L607.4120859781901,349.47912673193673L617.8847081502279,344.7349649805289L628.3573303222656,350.27813418782677L638.8299524943034,349.97424222758184L649.3025746663411,348.9672641077867L659.7751968383789,350.1621315421966L670.2478190104167,341.0736430172737L680.7204411824545,353.7433127394089L691.1930633544921,353.51263244793967L701.66568552653,343.8034466848924L712.1383076985677,344.8956157748516L722.6109298706056,346.5333155164352L733.0835520426432,349.3526869977896L743.5561742146809,348.3061869580012L754.0287963867188,349.4423308361035L764.5014185587565,346.42771737736007L774.9740407307943,336.56301790934344L785.446662902832,346.5975128423709L795.9192850748698,346.74164458192314L806.3919072469075,349.5872988460156L816.8645294189454,349.1438040389464L827.337151590983,354.5545058491138L837.8097737630208,349.106899536573L848.2823959350586,348.84782949548503L858.7550181070964,341.82240908764874L869.2276402791342,348.54073364230305L879.7002624511719,353.019515312635L890.1728846232096,347.4378125048601L900.6455067952475,345.4510947855619L911.1181289672852,346.48935158894614L921.5907511393228,352.1882299929857L932.0633733113607,349.931288340917L942.5359954833984,340.9346809490369L953.0086176554362,352.3401488214731" fill="none"></path></g></g></g></g></g></g><g transform="translate(50, 379)" clip-path="url(#clip_1)"><clipPath id="clip_1"><rect width="942" height="21"></rect></clipPath><g><g><line x1="0" y1="0" x2="0" y2="5" style="visibility: inherit;" fill="rgb(0, 0, 0)" stroke="rgb(204, 204, 204)" stroke-width="1px"></line><line x1="104.7262217203776" y1="0" x2="104.7262217203776" y2="5" style="visibility: inherit;" fill="rgb(0, 0, 0)" stroke="rgb(204, 204, 204)" stroke-width="1px"></line><line x1="209.4524434407552" y1="0" x2="209.4524434407552" y2="5" style="visibility: inherit;" fill="rgb(0, 0, 0)" stroke="rgb(204, 204, 204)" stroke-width="1px"></line><line x1="314.1786651611328" y1="0" x2="314.1786651611328" y2="5" style="visibility: inherit;" fill="rgb(0, 0, 0)" stroke="rgb(204, 204, 204)" stroke-width="1px"></line><line x1="418.9048868815104" y1="0" x2="418.9048868815104" y2="5" style="visibility: inherit;" fill="rgb(0, 0, 0)" stroke="rgb(204, 204, 204)" stroke-width="1px"></line><line x1="523.6311086018881" y1="0" x2="523.6311086018881" y2="5" style="visibility: inherit;" fill="rgb(0, 0, 0)" stroke="rgb(204, 204, 204)" stroke-width="1px"></line><line x1="628.3573303222656" y1="0" x2="628.3573303222656" y2="5" style="visibility: inherit;" fill="rgb(0, 0, 0)" stroke="rgb(204, 204, 204)" stroke-width="1px"></line><line x1="733.0835520426432" y1="0" x2="733.0835520426432" y2="5" style="visibility: inherit;" fill="rgb(0, 0, 0)" stroke="rgb(204, 204, 204)" stroke-width="1px"></line><line x1="837.8097737630208" y1="0" x2="837.8097737630208" y2="5" style="visibility: inherit;" fill="rgb(0, 0, 0)" stroke="rgb(204, 204, 204)" stroke-width="1px"></line><line x1="942.5359954833984" y1="0" x2="942.5359954833984" y2="5" style="visibility: inherit;" fill="rgb(0, 0, 0)" stroke="rgb(204, 204, 204)" stroke-width="1px"></line></g><g transform="translate(0, 8)"><text style="text-anchor: middle; visibility: hidden; font-family: Roboto, sans-serif; font-size: 12px; font-weight: 200;" x="0" y="0" dx="0em" dy="0.95em" fill="rgb(33, 33, 33)" stroke="none" stroke-width="1px">-1k</text><text style="text-anchor: middle; visibility: hidden; font-family: Roboto, sans-serif; font-size: 12px; font-weight: 200;" x="104.7262217203776" y="0" dx="0em" dy="0.95em" fill="rgb(33, 33, 33)" stroke="none" stroke-width="1px">0</text><text style="text-anchor: middle; visibility: hidden; font-family: Roboto, sans-serif; font-size: 12px; font-weight: 200;" x="209.4524434407552" y="0" dx="0em" dy="0.95em" fill="rgb(33, 33, 33)" stroke="none" stroke-width="1px">1k</text><text style="text-anchor: middle; visibility: hidden; font-family: Roboto, sans-serif; font-size: 12px; font-weight: 200;" x="314.1786651611328" y="0" dx="0em" dy="0.95em" fill="rgb(33, 33, 33)" stroke="none" stroke-width="1px">2k</text><text style="text-anchor: middle; visibility: hidden; font-family: Roboto, sans-serif; font-size: 12px; font-weight: 200;" x="418.9048868815104" y="0" dx="0em" dy="0.95em" fill="rgb(33, 33, 33)" stroke="none" stroke-width="1px">3k</text><text style="text-anchor: middle; visibility: hidden; font-family: Roboto, sans-serif; font-size: 12px; font-weight: 200;" x="523.6311086018881" y="0" dx="0em" dy="0.95em" fill="rgb(33, 33, 33)" stroke="none" stroke-width="1px">4k</text><text style="text-anchor: middle; visibility: hidden; font-family: Roboto, sans-serif; font-size: 12px; font-weight: 200;" x="628.3573303222656" y="0" dx="0em" dy="0.95em" fill="rgb(33, 33, 33)" stroke="none" stroke-width="1px">5k</text><text style="text-anchor: middle; visibility: hidden; font-family: Roboto, sans-serif; font-size: 12px; font-weight: 200;" x="733.0835520426432" y="0" dx="0em" dy="0.95em" fill="rgb(33, 33, 33)" stroke="none" stroke-width="1px">6k</text><text style="text-anchor: middle; visibility: hidden; font-family: Roboto, sans-serif; font-size: 12px; font-weight: 200;" x="837.8097737630208" y="0" dx="0em" dy="0.95em" fill="rgb(33, 33, 33)" stroke="none" stroke-width="1px">7k</text><text style="text-anchor: middle; visibility: hidden; font-family: Roboto, sans-serif; font-size: 12px; font-weight: 200;" x="942.5359954833984" y="0" dx="0em" dy="0.95em" fill="rgb(33, 33, 33)" stroke="none" stroke-width="1px">8k</text></g><line x1="0" y1="0" x2="942.5359954833984" y2="0" fill="rgb(0, 0, 0)" stroke="rgb(204, 204, 204)" stroke-width="1px"></line></g></g></g></g></svg>